<?xml version="1.0" standalone="no"?>
<!DOCTYPE svg PUBLIC "-//W3C//DTD SVG 1.1//EN" "http://www.w3.org/Graphics/SVG/1.1/DTD/svg11.dtd" >
<!--
2013-9-30: Created.
-->
<svg>
<metadata>
Created by iconfont
</metadata>
<defs>

<font id="iconfont" horiz-adv-x="1024" >
  <font-face
    font-family="iconfont"
    font-weight="500"
    font-stretch="normal"
    units-per-em="1024"
    ascent="896"
    descent="-128"
  />
    <missing-glyph />
    
    <glyph glyph-name="x" unicode="x" horiz-adv-x="1001"
d="M281 543q-27 -1 -53 -1h-83q-18 0 -36.5 -6t-32.5 -18.5t-23 -32t-9 -45.5v-76h912v41q0 16 -0.5 30t-0.5 18q0 13 -5 29t-17 29.5t-31.5 22.5t-49.5 9h-133v-97h-438v97zM955 310v-52q0 -23 0.5 -52t0.5 -58t-10.5 -47.5t-26 -30t-33 -16t-31.5 -4.5q-14 -1 -29.5 -0.5
t-29.5 0.5h-32l-45 128h-439l-44 -128h-29h-34q-20 0 -45 1q-25 0 -41 9.5t-25.5 23t-13.5 29.5t-4 30v167h911zM163 247q-12 0 -21 -8.5t-9 -21.5t9 -21.5t21 -8.5q13 0 22 8.5t9 21.5t-9 21.5t-22 8.5zM316 123q-8 -26 -14 -48q-5 -19 -10.5 -37t-7.5 -25t-3 -15t1 -14.5
t9.5 -10.5t21.5 -4h37h67h81h80h64h36q23 0 34 12t2 38q-5 13 -9.5 30.5t-9.5 34.5q-5 19 -11 39h-368zM336 498v228q0 11 2.5 23t10 21.5t20.5 15.5t34 6h188q31 0 51.5 -14.5t20.5 -52.5v-227h-327z" />
    

    
    <glyph glyph-name="gengduo" unicode="&#58890;" d="M160.349 397.1911c-45.6909 0-82.7314-36.2065-82.7314-80.8712 0-44.6617 37.0404-80.8662 82.7314-80.8662 45.6889 0 82.7294 36.2045 82.7294 80.8662C243.0794 360.9847 206.039 397.1911 160.349 397.1911zM514.3399 397.1911c-45.6889 0-82.7294-36.2065-82.7294-80.8712 0-44.6617 37.0404-80.8662 82.7294-80.8662 45.6909 0 82.7314 36.2045 82.7314 80.8662C597.0713 360.9847 560.0308 397.1911 514.3399 397.1911zM868.3327 397.1911c-45.6909 0-82.7314-36.2065-82.7314-80.8712 0-44.6617 37.0404-80.8662 82.7314-80.8662 45.6889 0 82.7294 36.2045 82.7294 80.8662C951.0621 360.9847 914.0217 397.1911 868.3327 397.1911z"  horiz-adv-x="1000" />

    
    <glyph glyph-name="check" unicode="&#58949;" d="M887.904 597.792c-12.864 12.064-33.152 11.488-45.216-1.408L415.936 142.016l-233.12 229.696C170.208 384.128 149.952 384 137.536 371.392c-12.416-12.576-12.256-32.864 0.352-45.248l256.48-252.672c0.096-0.096 0.224-0.128 0.32-0.224 0.096-0.096 0.128-0.224 0.224-0.32 2.016-1.92 4.448-3.008 6.784-4.288 1.152-0.672 2.144-1.664 3.36-2.144 3.776-1.472 7.776-2.24 11.744-2.24 4.192 0 8.384 0.832 12.288 2.496 1.312 0.544 2.336 1.664 3.552 2.368 2.4 1.408 4.896 2.592 6.944 4.672 0.096 0.096 0.128 0.256 0.224 0.352 0.064 0.096 0.192 0.128 0.288 0.224l449.184 478.208C901.44 565.408 900.768 585.664 887.904 597.792z"  horiz-adv-x="1024" />

    
    <glyph glyph-name="close" unicode="&#58951;" d="M557.312 382.752l265.28 263.904c12.544 12.48 12.608 32.704 0.128 45.248-12.512 12.576-32.704 12.608-45.248 0.128l-265.344-263.936-263.04 263.84C236.64 704.416 216.384 704.48 203.84 692 191.328 679.52 191.296 659.264 203.776 646.72l262.976-263.776L201.6 119.2c-12.544-12.48-12.608-32.704-0.128-45.248 6.24-6.272 14.464-9.44 22.688-9.44 8.16 0 16.32 3.104 22.56 9.312l265.216 263.808 265.44-266.24c6.24-6.272 14.432-9.408 22.656-9.408 8.192 0 16.352 3.136 22.592 9.344 12.512 12.48 12.544 32.704 0.064 45.248L557.312 382.752z"  horiz-adv-x="1024" />

    
    <glyph glyph-name="roundrightfill" unicode="&#58970;" d="M512 832C264.96 832 64 631.04 64 384s200.96-448 448-448 448 200.96 448 448S759.04 832 512 832zM661.76 360.032l-160.256-158.496c-6.24-6.144-14.368-9.248-22.496-9.248-8.256 0-16.512 3.168-22.752 9.504-12.416 12.576-12.32 32.8 0.256 45.248l137.408 135.904-136.288 136.672c-12.48 12.512-12.448 32.768 0.064 45.248 12.512 12.512 32.768 12.448 45.248-0.064l158.912-159.36c0.032-0.032 0.032-0.064 0.064-0.096s0.064-0.032 0.096-0.064c2.944-2.976 5.056-6.432 6.592-10.048 0.064-0.128 0.224-0.256 0.256-0.384C673.6 383.232 671.232 369.408 661.76 360.032z"  horiz-adv-x="1024" />

    
    <glyph glyph-name="roundright" unicode="&#58971;" d="M512-64C264.96-64 64 136.96 64 384S264.96 832 512 832s448-200.96 448-448S759.04-64 512-64zM512 768C300.256 768 128 595.744 128 384c0-211.744 172.256-384 384-384 211.744 0 384 172.256 384 384C896 595.744 723.744 768 512 768zM668.832 394.848c-0.032 0.128-0.192 0.256-0.256 0.384-1.536 3.616-3.648 7.072-6.592 10.048-0.032 0.032-0.064 0.032-0.096 0.064s-0.032 0.064-0.064 0.096l-158.912 159.36c-12.48 12.512-32.736 12.576-45.248 0.064-12.512-12.48-12.544-32.736-0.064-45.248l136.288-136.672-137.408-135.904c-12.576-12.448-12.672-32.672-0.256-45.248 6.24-6.336 14.496-9.504 22.752-9.504 8.128 0 16.256 3.104 22.496 9.248l160.256 158.496C671.232 369.408 673.6 383.232 668.832 394.848z"  horiz-adv-x="1024" />

    
    <glyph glyph-name="unfold" unicode="&#58977;" d="M890.336 565.088c-12.576 12.416-32.8 12.352-45.248-0.192L517.248 234.048 184.832 563.488c-12.576 12.448-32.8 12.352-45.28-0.192-12.448-12.576-12.352-32.832 0.192-45.28l353.312-350.112c0.544-0.544 1.248-0.672 1.792-1.184 0.128-0.128 0.16-0.288 0.288-0.416 6.24-6.176 14.4-9.28 22.528-9.28 8.224 0 16.48 3.168 22.72 9.472l350.112 353.312C902.976 532.384 902.88 552.64 890.336 565.088z"  horiz-adv-x="1024" />

    
    <glyph glyph-name="zhuanfa" unicode="&#58911;" d="M1019.899 317.829l-0.003-1.164-143.564-118.625v-158.557c0-10.937-8.867-19.802-19.803-19.802h-688.655c-10.937 0-19.803 8.865-19.803 19.802v470.331c0 10.937 8.867 19.802 19.803 19.802h118.983c0 0 0 0 0 0h-0.18c59.7 107.382 133.099 144.415 134.161 144.946h-398.63c-10.937 0-19.803-8.865-19.803-19.802v-759.563c0-10.937 8.867-19.802 19.803-19.802h979.195c10.937 0 19.803 8.865 19.803 19.802v422.631h-1.308zM1019.894 570.174l-311.271 248.955v-155.875c-156.299-0.018-254.676-60.171-316.551-133.634h-0.012c0 0 0 0 0 0h0.012c-97.074-115.255-104.287-263.28-104.287-263.28 113.649 186.652 183.575 221.614 401.518 221.614h19.319v-176.793l311.271 259.013z"  horiz-adv-x="1024" />

    
    <glyph glyph-name="weizhaopin" unicode="&#58935;" d="M511.15177643-123.38464767999994c-281.36692053 0-509.46632477 228.08190749-509.46632477 509.44428601 0 68.64450787 13.66472704 134.07788942 38.27660345 193.84581234l41.32718137-18.64036352c-22.0573093-54.07219029-34.31783879-113.19858631-34.31783879-175.20428374 0-256.3486629 207.82121074-464.16019456 464.18037646-464.16019456 256.35916686 0 464.17921251 207.81036658 464.17921252 464.16019456S767.51094329 850.22099683 511.15177643 850.22099683c-94.67387449 0-182.69120057-28.40647111-256.10417608-77.07400419l-25.70519552 37.30168491C310.06396075 864.15062243 406.92679907 895.50508829 511.15177643 895.50508829c281.36692053 0 509.46632477-228.08307257 509.46632476-509.44544996S792.51986091-123.38464767999994 511.15177643-123.38464767999994zM516.81281024 737.0107665099999c196.96487879 0 356.6265435-159.65978055 356.6265435-356.61193216 0-196.95215161-159.66166471-356.61309611-356.6265435-356.61309611-196.96371371 0-356.6265435 159.6609445-356.6265435 356.61309611C160.18626787 577.35098595 319.84909653 737.0107665099999 516.81281024 737.0107665099999zM534.63540509 255.64229177000004l110.00710371 0c-1.19228643-22.77011797-5.31638955-35.34450461-12.41538674-37.73247374-1.19345152-1.20388153-8.87811299-1.20388153-23.0621366 0-10.65955783 0-18.95200654 0-24.85522432 0 8.2703269-10.78020779 13.00105102-26.33635385 14.19450254-46.71733874 40.20126265-1.17710279 66.82395989 2.41591182 79.84829781 10.78020778 11.80643555 9.6007771 20.1012133 47.89793451 24.84358144 114.99742208l-104.69187925 0 7.09899833 19.76157981 120.65501866 0 0 41.32665344L483.19124935 358.0583424l0-41.32665344 65.64098731 0C545.28215609 296.34837503999995 540.53978795 275.99533397000005 534.63540509 255.64229177000004zM307.53151431 521.55796707l26.61105323 0L334.14256867 280.79222898c-10.64674987-1.20388153-19.51438507-2.41009095-26.61105322-3.59301461 1.16084963-4.79689614 3.54775267-12.57555058 7.09783324-23.35925135 2.3554651-13.18913479 4.70976626-22.76546105 7.09899833-28.74528085l1.76863687 0c1.17132857 0 5.32803243 1.17710279 12.42703076 3.59301461 24.83077347 8.37011683 52.61664939 15.55498211 83.3867355 21.55808768l0-79.05214123 49.68483385 0 0 88.0428271c3.53843769 1.17826674 9.44165547 2.38680519 17.73410418 3.59301461 7.09899833 2.38796914 12.4281947 3.59417856 15.96430336 3.59417856 0 11.95963847 0.59847225 25.74256355 1.7791158 41.32548836l-35.47752334-7.18719317L468.99558286 521.55796707l24.83310251 0 0-149.12989638 212.91753813 0L706.7462235 555.69859129l-81.61693468 0 0 7.18602922c0 7.19068615 0.5763493 13.16817693 1.76863687 17.97205789 1.1736576 2.37981923 1.76980082 4.17865501 1.76980082 5.38370048 2.36710912 2.38680519-7.0966693 3.59185067-28.3796901 3.59185067l-26.61105323 0 0-34.13363826-72.74929948 0 0 12.57671566L307.53151431 568.27530695 307.53151431 521.55796707zM382.05061575 350.86416326999995l37.25896818 0 0-57.48939662c-11.8308864-1.2097024-24.25791715-3.00621027-37.25896818-5.39534336L382.05061575 350.86416326999995zM382.05061575 437.11048363l37.25896818 0 0-44.920832-37.25896818 0L382.05061575 437.11048363zM382.05061575 521.55796707l37.25896818 0 0-43.12432412-37.25896818 0L382.05061575 521.55796707zM575.44212594 483.83247929l-31.92860672 0 0 28.74411577 31.92860672 0L575.44212594 483.83247929zM573.6758181 415.551232l-30.16113493 0 0 28.75110173 30.16113493 0L573.6758181 415.551232zM653.510144 483.83247929l-30.15997099 0 0 28.74411577 30.15997099 0L653.510144 483.83247929zM653.510144 415.551232l-30.15997099 0 0 28.75110173 30.15997099 0L653.510144 415.551232zM131.88342329 612.48009671c-46.88924672 0-84.91086051 38.01539811-84.91086052 84.90738119s38.02161266 84.90738119 84.91086052 84.90738119c46.88924672 0 84.91202446-38.01539811 84.91202446-84.90738119S178.77267115 612.48009671 131.88342329 612.48009671z"  horiz-adv-x="1024" />

    
    <glyph glyph-name="female" unicode="&#59162;" d="M864 480c0 194.08-157.92 352-352 352S160 674.08 160 480c0-183.392 141.024-334.304 320.32-350.4C480.288 129.024 480 128.576 480 128l0-64-128 0c-17.664 0-32-14.304-32-32s14.336-32 32-32l128 0 0-32c0-17.696 14.336-32 32-32s32 14.304 32 32l0 32 128 0c17.696 0 32 14.304 32 32s-14.304 32-32 32l-128 0 0 64c0 0.576-0.288 1.024-0.32 1.6C722.976 145.696 864 296.608 864 480zM512 192c-158.784 0-288 129.184-288 288 0 158.784 129.216 288 288 288 158.816 0 288-129.216 288-288C800 321.184 670.816 192 512 192z"  horiz-adv-x="1024" />

    
    <glyph glyph-name="male" unicode="&#59164;" d="M926.56 775.2c-0.224 1.344-0.32 2.72-0.8 4.032 0 0 0 0-0.032 0.032-0.8 2.176-2.112 3.968-3.36 5.888-0.032 0.064-0.064 0.096-0.096 0.16-0.832 1.28-1.216 2.688-2.24 3.872-0.224 0.256-0.544 0.352-0.768 0.608-1.6 1.728-3.584 2.88-5.568 4.224 0 0.032-0.032 0.032-0.064 0.064-1.504 1.024-2.848 2.272-4.48 3.008 0 0 0 0-0.032 0C905.088 798.88 900.672 800 896 800l-224 0c-17.696 0-32-14.336-32-32s14.304-32 32-32l139.328 0-152.704-134.656C599.808 645.504 527.04 672 448 672 253.92 672 96 514.08 96 320s157.92-352 352-352 352 157.92 352 352c0 91.904-35.68 175.424-93.6 238.176L864 697.12 864 576c0-17.664 14.304-32 32-32s32 14.336 32 32L928 768C928 770.56 927.136 772.8 926.56 775.2zM736 320c0-158.816-129.184-288-288-288-158.784 0-288 129.184-288 288 0 158.784 129.216 288 288 288C606.816 608 736 478.784 736 320z"  horiz-adv-x="1024" />

    
    <glyph glyph-name="iconfont25" unicode="&#59161;" d="M1014.610257-157.333495 796.840211 60.436551c-3.6639 3.6639-8.03178 6.127832-12.655654 7.647791C853.718656 147.010183 895.9895 250.559352 895.9895 364.01225 895.9895 611.429484 695.418985 812 448.00175 812S0.014 611.429484 0.014 364.01225s200.570516-447.98775 447.98775-447.98775c113.468897 0 217.002066 42.270844 295.943908 111.804943 1.519958-4.623874 3.983891-8.991754 7.647791-12.671654l217.770045-217.786045c12.495658-12.495658 32.767104-12.495658 45.246763 0C1027.105915-190.084599 1027.105915-169.845153 1014.610257-157.333495zM448.00175-35.976813C227.09579-35.976813 48.012687 143.10629 48.012687 364.01225S227.09579 764.001312 448.00175 764.001312s399.989063-179.083103 399.989063-399.989063S668.90771-35.976813 448.00175-35.976813zM639.9965 396.011375 480.000875 396.011375 480.000875 556.007c0 17.663517-14.335608 31.999125-31.999125 31.999125s-31.999125-14.335608-31.999125-31.999125l0-159.995625L256.007 396.011375c-17.663517 0-31.999125-14.335608-31.999125-31.999125s14.335608-31.999125 31.999125-31.999125l159.995625 0 0-159.995625c0-17.663517 14.335608-31.999125 31.999125-31.999125s31.999125 14.335608 31.999125 31.999125L480.000875 332.013125l159.995625 0c17.663517 0 31.999125 14.335608 31.999125 31.999125S657.660017 396.011375 639.9965 396.011375z"  horiz-adv-x="1024" />

    
    <glyph glyph-name="yingsaitong" unicode="&#58883;" d="M976.544 449.817l-376.389 391.76c-23.386 24.322-54.653 37.707-88.159 37.707-33.508 0-64.772-13.383-88.157-37.707l-376.387-391.76c-38.838-40.436-33.839-75.388-27.417-89.987 4.577-10.358 20.026-38.832 64.529-38.832h55.17v-301.374c0-68.425 49.136-132.848 118.969-132.848h160.231v318.944c0 34.192-5.181 53.247 29.75 53.247h126.631c34.932 0 29.748-19.056 29.748-53.247v-318.946h160.229c69.833 0 118.973 64.425 118.973 132.848v301.375h55.165c44.506 0 59.957 28.473 64.53 38.832 6.42 14.599 11.42 49.551-27.417 89.988z"  horiz-adv-x="1024" />

    
    <glyph glyph-name="jikediancanicon03" unicode="&#59249;" d="M608.352-148.448l-179.68 0c-169.152 0-302.784 0-302.784 85.952l0 17.696c0 164.416 135.808 298.144 302.784 298.144l179.68 0c166.976 0 302.816-133.76 302.816-298.144l0-17.696C911.168-148.448 770.848-148.448 608.352-148.448zM428.64 205.344c-140.512 0-254.784-112.224-254.784-250.144l0-17.696c0-37.952 141.28-37.952 254.784-37.952l179.68 0c95.328 0 254.816 0 254.816 37.952l0 17.696c0 137.952-114.304 250.144-254.816 250.144L428.64 205.344zM509.536 276.096c-132.224 0-239.808 106.016-239.808 236.288s107.584 236.288 239.808 236.288c132.224 0 239.808-105.984 239.808-236.288S641.76 276.096 509.536 276.096zM317.728 512.384c0-103.808 86.016-188.288 191.808-188.288 105.792 0 191.808 84.48 191.808 188.288 0 103.808-86.048 188.288-191.808 188.288C403.744 700.64 317.728 616.192 317.728 512.384z"  horiz-adv-x="1024" />

    
    <glyph glyph-name="xinzi" unicode="&#58989;" d="M758.3607466666667-38.768640000000005c-134.56725333333333 0-244.03968 109.47242666666666-244.03968 244.03968s109.47242666666666 244.03968 244.03968 244.03968 244.06698666666668-109.47242666666666 244.06698666666668-244.03968S892.928-38.768640000000005 758.3607466666667-38.768640000000005zM758.3607466666667 408.32341333333335c-111.98464 0-203.07968-91.09504-203.07968-203.07968s91.09504-203.07968 203.07968-203.07968 203.10698666666667 91.09504 203.10698666666667 203.07968S870.3453866666666 408.32341333333335 758.3607466666667 408.32341333333335zM434.6402133333333 93.47754666666663L96.66560000000004 93.47754666666663c-41.424213333333334 0-75.09333333333333 33.69642666666667-75.09333333333333 75.09333333333333L21.57226666666668 689.00864c0 41.396906666666666 33.66912 75.09333333333333 75.09333333333333 75.09333333333333l773.1336533333333 0c41.424213333333334 0 75.09333333333333-33.69642666666667 75.09333333333333-75.09333333333333l0-204.28117333333333-40.96 0L903.9325866666666 689.00864c0 18.814293333333335-15.31904 34.13333333333333-34.13333333333333 34.13333333333333L96.66560000000004 723.1419733333333c-18.814293333333335 0-34.13333333333333-15.31904-34.13333333333333-34.13333333333333l0-520.43776c0-18.814293333333335 15.31904-34.13333333333333 34.13333333333333-34.13333333333333l337.9746133333333 0L434.6402133333333 93.47754666666663zM924.4398933333334 643.4338133333333L42.05226666666664 643.4338133333333c-11.30496 0-20.48 9.17504-20.48 20.48s9.17504 20.48 20.48 20.48l882.36032 0c11.30496 0 20.48-9.17504 20.48-20.48S935.7448533333334 643.4338133333333 924.4398933333334 643.4338133333333zM754.1828266666666 76.38357333333329c-11.30496 0-20.48 9.17504-20.48 20.48l0 134.23957333333334c0 11.30496 9.17504 20.48 20.48 20.48s20.48-9.17504 20.48-20.48l0-134.23957333333334C774.6628266666667 85.55861333333326 765.4877866666667 76.38357333333329 754.1828266666666 76.38357333333329zM752.0529066666668 193.8295466666666c-4.696746666666667 0-9.393493333333334 1.5837866666666665-13.216426666666665 4.83328-8.628906666666667 7.318186666666667-9.693866666666665 20.23424-2.4029866666666666 28.863146666666665l75.58485333333333 89.34741333333334c7.2908800000000005 8.628906666666667 20.261546666666668 9.66656 28.863146666666665 2.4029866666666666 8.628906666666667-7.318186666666667 9.693866666666665-20.23424 2.4029866666666666-28.863146666666665l-75.58485333333333-89.34741333333334C763.6582400000001 196.3144533333333 757.8692266666667 193.8295466666666 752.0529066666668 193.8295466666666zM758.0330666666666 193.99338666666665c-5.789013333333333 0-11.578026666666666 2.4576-15.592106666666666 7.236266666666666l-75.72138666666666 89.21088c-7.345493333333334 8.628906666666667-6.2532266666666665 21.54496 2.3483733333333334 28.863146666666665 8.6016 7.2908800000000005 21.572266666666668 6.2532266666666665 28.863146666666665-2.3483733333333334l75.72138666666666-89.21088c7.345493333333334-8.628906666666667 6.2532266666666665-21.54496-2.3483733333333334-28.863146666666665C767.42656 195.60447999999997 762.7298133333334 193.99338666666665 758.0330666666666 193.99338666666665zM812.7010133333333 178.3466666666667l-117.00906666666667 0c-11.30496 0-20.48 9.17504-20.48 20.48s9.17504 20.48 20.48 20.48l117.00906666666667 0c11.30496 0 20.48-9.17504 20.48-20.48S824.0059733333333 178.3466666666667 812.7010133333333 178.3466666666667zM812.7010133333333 128.43007999999998l-117.00906666666667 0c-11.30496 0-20.48 9.17504-20.48 20.48s9.17504 20.48 20.48 20.48l117.00906666666667 0c11.30496 0 20.48-9.17504 20.48-20.48S824.0059733333333 128.43007999999998 812.7010133333333 128.43007999999998z"  horiz-adv-x="1024" />

    
    <glyph glyph-name="user" unicode="&#58889;" d="M958.953-104.46c0 0 0 153.288-111.994 209.011-70.881 35.265-43.581 8.287-130.6 44.365-87.007 36.037-107.619 47.801-107.619 47.801l-0.757 82.632c0 0 32.587 24.734 42.753 102.879 20.332-5.889 27.23 23.851 28.324 42.851 1.205 18.355 12.031 75.564-12.858 70.461 5.090 38.196 9.086 72.731 7.278 91.017-6.226 64.164-50.591 131.176-162.571 136.069-95.209-4.893-157.018-71.947-163.258-136.111-1.795-18.284 1.864-52.792 6.955-91.059-24.875 5.174-14.163-52.148-13.069-70.488 1.205-19 7.937-48.825 28.324-42.935 10.124-78.158 42.711-103.076 42.711-103.076l-0.814-83.066c0 0-20.612-12.577-107.619-48.6-87.007-36.093-59.719-7.474-130.6-42.725-112.006-55.753-112.006-209.027-112.006-209.027h0.028c-0.014-0.028-0.028-0.071-0.028-0.098 0-23.234 18.832-42.066 42.066-42.066h813.275c23.234 0 42.066 18.832 42.066 42.066 0 0.042-0.014 0.071-0.014 0.098h0.028z"  horiz-adv-x="1024" />

    
    <glyph glyph-name="4" unicode="&#58901;" d="M142.769 864h738.461v-73.846h-738.461v73.846zM512 716.308l369.231-369.231h-738.461l369.231 369.231zM364.308 347.077h295.385v-443.077h-295.385v443.077z"  horiz-adv-x="1024" />

    
    <glyph glyph-name="jinlingyingcaiwangtubiao19" unicode="&#59292;" d="M505.8286933333333 532.5755733333333c-84.70527999999999 0-153.6-68.89472-153.6-153.6 0-84.70527999999999 68.89472-153.6 153.6-153.6s153.6 68.89472 153.6 153.6C659.4286933333333 463.68085333333335 590.5339733333333 532.5755733333333 505.8286933333333 532.5755733333333zM505.8286933333333 266.3355733333334c-62.09536 0-112.63999999999999 50.544639999999994-112.63999999999999 112.63999999999999 0 62.09536 50.544639999999994 112.63999999999999 112.63999999999999 112.63999999999999s112.63999999999999-50.51733333333333 112.63999999999999-112.63999999999999C618.4686933333332 316.85290666666674 567.9513599999999 266.3355733333334 505.8286933333333 266.3355733333334zM923.72992 503.54858666666667l-52.34688 0c-5.2428799999999995 15.455573333333332-11.441493333333334 30.47424-18.51392 44.89216 18.896213333333332 18.896213333333332 32.05802666666667 32.05802666666667 36.891306666666665 36.94592 18.92352 18.868906666666664 22.801066666666667 38.03818666666667 22.719146666666667 50.76309333333334-0.21845333333333333 29.46389333333333-20.589226666666665 50.05312-22.69184 52.073813333333334L815.9232 762.1154133333333c-2.29376 2.29376-23.292586666666665 22.391466666666666-52.81109333333333 22.391466666666666-18.0224 0-35.280213333333336-7.755093333333334-49.91658666666666-22.336853333333334l-37.218986666666666-37.19168c-14.335999999999999 6.990506666666667-29.32736 13.134506666666665-44.83754666666667 18.377386666666666L631.1389866666667 796.8494933333334c0 52.12842666666666-43.144533333333335 72.00768-72.58112 72.66304l-104.93951999999999 0c-29.081599999999998-0.6280533333333334-72.33536000000001-20.48-72.33536000000001-72.66304L381.2829866666667 743.3557333333333c-15.373653333333333-5.215573333333333-30.337706666666666-11.38688-44.755626666666664-18.377386666666666l-37.6832 37.65589333333333c-14.41792 14.41792-31.62112 22.063786666666665-49.69813333333333 22.063786666666665-29.190826666666666 0-50.490026666666665-19.49696-53.13877333333333-22.063786666666665L121.8696533333333 688.4966400000001c-20.097706666666667-20.998826666666666-36.61824-65.59061333333334 0.32767999999999997-102.56384l37.46474666666666-37.49205333333333c-7.04512-14.390613333333333-13.216426666666665-29.40928-18.51392-44.89216L88.03669333333335 503.54858666666667c-52.18304 0-72.0896-43.25376-72.74496-72.79957333333333l0-104.88490666666667c0.6280533333333334-29.02698666666667 20.507306666666665-72.25344 72.74496-72.25344L140.9024 253.6106666666667c5.297493333333334-15.674026666666666 11.496106666666666-30.77461333333333 18.51392-45.19253333333334l-37.218986666666666-37.2736c-36.918613333333326-36.864000000000004-20.425386666666668-81.48309333333333 0-102.86421333333332l74.1376-74.11029333333333c2.321066666666667-2.2391466666666666 23.620266666666666-21.79072 52.8384-21.79072 18.104319999999998 0 35.30752 7.645866666666667 49.67082666666667 22.091093333333333l37.109759999999994 37.109759999999994c14.554453333333333-7.12704 29.73696-13.380266666666667 45.32906666666667-18.67776l0-51.82805333333333c0-57.480533333333334 47.486293333333336-72.69034666666667 72.77226666666667-72.69034666666667l104.52991999999999 0c29.163520000000002 0 72.58112 19.36042666666667 72.58112 72.69034666666667l0 51.855360000000005c15.728639999999999 5.3248 30.911146666666664 11.578026666666666 45.410986666666666 18.65045333333333 18.67776-18.73237333333333 31.675733333333334-31.703039999999998 36.509013333333336-36.48170666666667 18.65045333333333-18.786986666666667 37.65589333333333-22.74645333333333 50.29888-22.74645333333333 29.709653333333332 0 50.490026666666665 20.589226666666665 52.53802666666666 22.69184l73.83722666666665 73.86453333333334c20.64384 20.67114666666667 37.65589333333333 65.09909333333333 0 102.83690666666666l-36.672853333333336 36.672853333333336c7.072426666666666 14.527146666666665 13.27104 29.65504 18.51392 45.19253333333334l52.10112 0c26.733226666666667 0 42.980693333333335 10.81344 51.90997333333333 19.879253333333335 20.64384 20.971519999999998 20.80768 49.88928 20.753066666666665 52.81109333333333l0 104.448C996.3656533333333 460.02176 977.0325333333333 503.54858666666667 923.72992 503.54858666666667zM955.4056533333334 326.19178666666664c-0.027306666666666667-9.50272-3.19488-31.593813333333333-31.703039999999998-31.593813333333333l-82.43882666666667 0L836.9493333333332 279.9069866666666c-6.772053333333333-22.992213333333332-15.81056-45.083306666666665-26.92437333333333-65.67253333333333l-7.236266666666666-13.407573333333332 57.99936-57.99936c19.879253333333335-19.906560000000002 6.526293333333333-38.14741333333333 0-44.94677333333333l-74.05568-74.08298666666666c-0.08191999999999999-0.10922666666666667-10.89536-10.458453333333333-23.319893333333333-10.458453333333333-7.181653333333333 0-14.144853333333332 3.4679466666666663-21.38112 10.786133333333334-5.81632 5.761706666666667-22.77376 22.69184-46.994773333333335 46.994773333333335l-10.81344 10.840746666666666-13.462186666666666-7.2908800000000005c-20.343466666666664-11.031893333333333-42.51648-20.15232-65.91829333333334-27.11552l-14.636373333333333-4.34176 0-82.11114666666667c0-28.01664-22.17301333333333-31.511893333333333-31.757653333333334-31.730346666666666l-104.55722666666666 0c-9.530026666666666 0.027306666666666667-31.648426666666666 3.19488-31.648426666666666 31.730346666666666l0 82.13845333333333-14.690986666666667 4.34176c-23.074133333333336 6.826666666666667-45.19253333333334 15.919786666666665-65.75445333333333 27.088213333333332l-13.462186666666666 7.318186666666667-58.518186666666665-58.518186666666665c-6.744746666666667-6.799359999999999-13.5168-10.07616-20.698453333333333-10.07616-10.840746666666666 0-21.46304 7.61856-24.193706666666667 10.103466666666666l-73.37301333333333 73.34570666666667c-5.16096 5.5978666666666665-20.452693333333333 25.422506666666667-0.4096 45.410986666666666l58.54549333333333 58.62741333333333-7.2635733333333325 13.407573333333332c-10.949973333333332 20.261546666666668-20.043093333333335 42.352639999999994-26.978986666666668 65.67253333333333l-4.34176 14.66368L88.03669333333335 294.62528c-28.317013333333332 0-31.484586666666665 24.73984-31.78496 31.730346666666666l0 103.81994666666667c0.3003733333333333 7.61856 3.4952533333333333 32.46762666666667 31.78496 32.46762666666667l83.33994666666668 0 4.369066666666667 14.609066666666665c6.88128 23.046826666666668 15.947093333333333 45.02869333333333 26.978986666666668 65.34485333333333l7.2908800000000005 13.43488-58.873173333333334 58.92778666666666c-19.98848 20.015786666666667-4.724053333333333 39.78581333333333 0 44.919466666666665l73.37301333333333 73.40032c3.167573333333333 2.921813333333333 13.789866666666667 10.513066666666667 24.65792 10.513066666666667 7.181653333333333 0 13.953706666666667-3.3041066666666663 20.725759999999998-10.048853333333334l59.00970666666666-58.9824 13.407573333333332 7.20896c20.48 11.031893333333333 42.434560000000005 20.043093333333335 65.29024 26.84245333333333l14.636373333333333 4.34176L422.24298666666664 796.8494933333334c0 28.2624 24.821759999999998 31.40266666666667 31.81226666666667 31.703039999999998l103.90186666666666 0c7.563946666666666-0.3003733333333333 32.24917333333333-3.4952533333333333 32.24917333333333-31.730346666666666l0-83.72224L604.8426666666667 708.7581866666667c23.101439999999997-6.826666666666667 45.056000000000004-15.865173333333333 65.31754666666666-26.815146666666664l13.43488-7.2635733333333325 58.518186666666665 58.43626666666666c7.017813333333334 7.017813333333334 13.899093333333333 10.431146666666667 21.026133333333334 10.431146666666667 10.676906666666667 0 20.944213333333334-7.61856 23.838720000000002-10.40384l74.05568-74.11029333333333c0.10922666666666667-0.10922666666666667 10.376533333333333-10.81344 10.458453333333333-23.18336 0.05461333333333333-7.236266666666666-3.44064-14.226773333333334-10.758826666666666-21.54496-5.761706666666667-5.81632-22.910293333333335-22.964906666666664-47.43168-47.486293333333336l-10.81344-10.81344 7.318186666666667-13.462186666666666c11.113813333333333-20.39808 20.179626666666664-42.352639999999994 26.95168-65.26293333333334l4.34176-14.66368 82.60266666666666 0c28.071253333333335 0 31.511893333333333-22.391466666666666 31.703039999999998-31.83957333333333L955.4056533333334 326.19178666666664z"  horiz-adv-x="1024" />

    
    <glyph glyph-name="jiaoyiguanli" unicode="&#58968;" d="M520.334 282.913l46.553-47.234-29.886-31.090c0 0-21.838-23.918 6.61-54.411l234.198-242.145c0 0 22.41-20.931 47.126-2.99l117.245 118.386c0 0 20.688 28.693-6.9 55.005l-232.181 239.153c0 0-25.29 25.711-53.451 3.589l-30.456-32.282-48.85 50.222-50.003-56.204zM488.151 422.221l-251.146 257.692v79.524l-148.276 91.476-73.373-74.135 89.466-148.283 78.73-0.593 247.701-253.512 56.898 47.833zM82.981-11.252c0 0 0 39.463 39.653 39.463 0 0 35.633-1.198 36.781-39.463 0 0-1.149-35.873-38.218-38.263l-33.044-34.081c0 0 48.275-46.641 102.873 0l447.7 499.236c0 0 48.852-34.075 122.416-33.482 0 0 89.85-3.583 160.342 60.191 0 0 137.554 112.207 67.056 287.786l-160.156-161.028-135.635 139.509 160.156 159.437c0 0-101.915 62.183-239.849-27.903 0 0-71.266-51.813-92.723-145.089 0 0-32.179-110.807 39.852-210.46l-503.448-429.689c0 0-31.416-31.884-16.092-78.917l42.335 12.751zM82.981-11.252c0 0 3.061-37.47 38.218-38.263l-33.044-34.081c0 0-43.46 38.817-47.507 59.591l42.334 12.751zM82.981-11.252z"  horiz-adv-x="1024" />

    
    <glyph glyph-name="gongzi" unicode="&#58882;" d="M925.996 777.506h-827.99c-52.55 0-95.535-42.995-95.535-95.536v-573.219c0-52.541 42.985-95.535 95.535-95.535h827.99c52.57 0 95.535 42.995 95.535 95.535v573.22c0 52.542-42.964 95.535-95.535 95.535M98.003 713.815h827.99c17.253 0 31.845-14.59 31.845-31.845v-95.535h-891.682v95.535c0 17.255 14.61 31.845 31.845 31.845M925.996 76.906h-827.99c-17.235 0-31.845 14.591-31.845 31.845v286.615h891.681v-286.615c0.001-17.254-14.591-31.845-31.844-31.845M129.849 267.975h63.691v-127.379h-63.691v127.379zM257.231 267.975h63.689v-127.379h-63.689v127.379zM384.609 267.975h63.71v-127.379h-63.71v127.379z"  horiz-adv-x="1024" />

    
    <glyph glyph-name="add" unicode="&#59239;" d="M863.328 413.44l-317.344 1.12L545.984 733.184c0 17.664-14.336 32-32 32s-32-14.336-32-32l0-318.4L159.616 415.936c-0.032 0-0.064 0-0.096 0-17.632 0-31.936-14.24-32-31.904C127.424 366.368 141.728 352 159.392 351.936l322.592-1.152 0-319.168c0-17.696 14.336-32 32-32s32 14.304 32 32l0 318.944 317.088-1.12c0.064 0 0.096 0 0.128 0 17.632 0 31.936 14.24 32 31.904C895.264 399.008 880.96 413.376 863.328 413.44z"  horiz-adv-x="1024" />

    
    <glyph glyph-name="move" unicode="&#59240;" d="M863.744 352 163.424 352c-17.664 0-32 14.336-32 32s14.336 32 32 32l700.32 0c17.696 0 32-14.336 32-32S881.44 352 863.744 352z"  horiz-adv-x="1024" />

    
    <glyph glyph-name="dizhi" unicode="&#58896;" d="M511.998 861.817c-210.818 0-382.338-168.452-382.338-375.46 0-199.808 342.612-554.633 357.17-569.617 6.559-6.771 15.679-10.557 25.167-10.557h0.774c9.759 0 18.985 4.48 25.385 11.678l118.645 133.419c157.63 189.621 237.535 335.998 237.535 435.077 0 207.009-171.517 375.461-382.339 375.461v0zM511.998 315.717c-96.009 0-173.785 76.362-173.785 170.639 0 94.278 77.775 170.693 173.785 170.693 96.012 0 173.788-76.415 173.788-170.693 0-94.277-77.776-170.639-173.788-170.639v0zM511.998 315.717z"  horiz-adv-x="1024" />

    
    <glyph glyph-name="iconfontshujubeifen" unicode="&#58922;" d="M622.6547196289063 600.5310166992188l-499.89739394531256 0c-30.676418261718744 0-55.544540624999996-24.86725400390625-55.544540624999996-55.544540624999996l0-555.4419345703125c0-30.677286621093746 24.86812236328125-55.544540624999996 55.544540624999996-55.544540624999996l499.89739394531256 0c30.676418261718744 0 55.544540624999996 24.86725400390625 55.544540624999996 55.544540624999996l0 555.4419345703125c0 30.677286621093746-24.86812236328125 55.544540624999996-55.544540624999996 55.544540624999996zM567.110178125 45.08908212890617l-388.80918105468754 0 0 444.3528533203125 388.80918105468754 0 0-444.3528533203125zM901.2426743164062 823.5753l-499.89739394531256 0c-30.676418261718744 0-55.544540624999996-24.86725400390625-55.544540624999996-55.544540624999996l0-111.08821289062499 111.08821289062499 0 0 55.544540624999996 388.80918105468754 0 0-444.3528533203125-83.315942578125 0 0-111.08821289062499 138.86048408203123 0c30.676418261718744 0 55.544540624999996 24.86725400390625 55.544540624999996 55.544540624999996l0 555.4419345703125c0 30.677286621093746-24.86812236328125 55.544540624999996-55.544540624999996 55.544540624999996z"  horiz-adv-x="1024" />

    
    <glyph glyph-name="houtui1" unicode="&#59003;" d="M930.548736 331.009792 176.754688 331.009792l259.449856 259.449856c11.500544 11.501568 11.49952 30.149632 0 41.649152-11.500544 11.500544-30.148608 11.500544-41.649152 0.001024L105.650176 343.204608l-41.650176-41.650176 41.650176-41.650176 288.904192-288.904192c11.500544-11.500544 30.149632-11.49952 41.649152 0.001024 11.500544 11.49952 11.500544 30.14656 0 41.649152L176.745472 272.109312l753.803264 0c16.292864 0 29.451264 13.185024 29.451264 29.45024C960 317.82272 946.8416 331.009792 930.548736 331.009792z"  horiz-adv-x="1024" />

    
    <glyph glyph-name="iconfonticonfontwode1" unicode="&#58913;" d="M1023.392-154.24C1013.472-207.392 1013.152-212 995.712-212L511.936-212l-0.768 0L28.256-212c-17.376 0-17.696 4.608-27.584 57.76 0 0-0.48-43.808-0.032 40.672 0.096 19.584 4.704 24.096 14.88 41.184 22.624 38.048 92.896 62.016 92.896 62.016 66.624 62.72 216.928 62.464 232.288 62.048 15.36-0.384 25.888 17.824 30.976 31.04 4.576 24.832-9.44 85.696-46.432 124.128-50.816 52.832-73.856 96.32-84.288 143.52l-2.496 0.256-37.088 88.96 0 46.528 31.552 7.904c6.176 170.24 78.688 210.144 114.88 224.16 37.824 14.656 42.112 53.568 85.856 62.72C461.536 786.784 481.28 812 511.072 812c0.128 0 0.352-19.744 0.448-19.744l-0.448-26.816c-27.776-3.968-52.64-22.784-77.44-31.008-9.184-3.04-22.24-27.328-30.976-31.04-9.696-4.128-10.688-12.576-61.984-46.56-62.752-41.568-65.568-112.192-61.92-201.664 6.592-163.904 8.8-110.112 77.44-217.216 6.016-9.376 66.72-94.304 61.92-139.648-4.064-43.52 12.672-35.328-15.456-62.048-45.568-44.992-187.744-23.68-247.776-62.048 0 0-66.688-26.432-92.896-62.08-26.976-36.576-15.488-77.536-15.488-77.536l464.608 0 0.48-25.888 0.512 25.888 465.472 0c0 0 11.488 40.96-15.52 77.536-26.272 35.648-93.088 62.08-93.088 62.08-60.16 38.368-202.592 17.056-248.256 62.048-28.192 26.72-11.392 18.528-15.488 62.048-4.8 45.344 56.032 130.272 62.048 139.648 68.704 107.104 70.944 53.312 77.568 217.216 3.616 89.472 0.832 160.096-62.048 201.664-51.36 33.984-52.384 42.432-62.048 46.56-8.704 3.712-21.856 28-31.04 31.04-24.832 8.224-49.76 27.04-77.568 31.008l-0.448 26.816C511.68 792.224 511.904 812 512.032 812c29.824 0 49.6-25.216 77.568-31.008 43.84-9.152 48.128-48.096 86.016-62.72 36.288-14.016 108.832-53.952 115.072-224.16l31.648-7.904 0-46.528-37.152-88.96-2.528-0.256c-10.432-47.232-33.536-90.688-84.448-143.52-37.056-38.432-51.104-99.296-46.528-124.128 5.088-13.216 15.616-31.392 31.008-31.04 15.36 0.416 165.984 0.672 232.704-62.048 0 0 70.464-23.968 93.12-62.016 10.144-17.088 14.816-21.6 14.88-41.184C1023.872-198.048 1023.392-154.24 1023.392-154.24z"  horiz-adv-x="1024" />

    
    <glyph glyph-name="03piliangdaifawenjianshangchuan" unicode="&#58939;" d="M664.639488 450.899712l-53.208064 53.184512L345.347072 238.052096c-44.084224-44.063744-44.084224-115.544064 0-159.616 44.076032-44.063744 115.556352-44.063744 159.639552 0l319.304704 319.25248c73.49248 73.448448 73.49248 192.560128 0 266.012672-73.455616 73.48736-192.608256 73.48736-266.063872 0l-335.240192-335.19616c-0.236544-0.247808-0.500736-0.472064-0.7168-0.692224-102.483968-102.479872-102.483968-268.57984 0-371.023872 102.444032-102.444032 268.588032-102.444032 371.089408 0 0.224256 0.228352 0.41984 0.463872 0.671744 0.719872l0.023552-0.027648L822.884352 186.27456l-53.235712 53.18144L540.82048 10.688256c-0.243712-0.22016-0.459776-0.467968-0.692224-0.692224-72.972288-72.955904-191.676416-72.955904-264.664064 0-72.96 72.942592-72.96 191.628288 0 264.584192 0.247808 0.247808 0.49152 0.47616 0.728064 0.692224l-0.039936 0.047104L611.43552 610.50752c44.000256 44.024832 115.623936 44.024832 159.647744 0 44.000256-44.015616 44.000256-115.627008 0-159.611904L451.782656 131.656448c-14.691328-14.68416-38.547456-14.68416-53.223424 0-14.660608 14.652416-14.660608 38.528 0 53.180416L664.639488 450.899712 664.639488 450.899712zM664.639488 450.899712"  horiz-adv-x="1024" />

    
    <glyph glyph-name="jianli" unicode="&#58907;" d="M640 620 576 620 576 748l64 0L640 812 384 812l0-64 64 0 0-128L384 620l0-64 256 0L640 620zM807.36 721.312 704 721.312 704 620l64 0 0-128L256 492 256 620l64 0L320 721.312 216.64 721.312C167.68 721.312 128 680.736 128 630.688l0-752C128-171.36 167.68-212 216.64-212l590.72 0C856.32-212 896-171.36 896-121.376L896 630.688C896 680.736 856.32 721.312 807.36 721.312zM704 44 320 44l0 64 384 0L704 44zM704 236 320 236 320 300l384 0L704 236z"  horiz-adv-x="1024" />

    
    <glyph glyph-name="shouye" unicode="&#58909;" d="M96.628 130.181c-0.063 55.439-0.187 110.88 0 166.319 0.122 35.637 4.183 74.034-53.054 54.047-12.148-4.278-27.488-4.976-35.141 8.831-10.041 18.16 4.773 28.34 15.682 39.697 150.357 156.882 300.873 313.596 450.49 471.143 26.061 27.458 46.948 26.836 72.421-0.031 149.337-157.797 299.2-315.037 449.219-472.137 11.311-11.823 24.543-22.591 14.318-40.006-7.779-13.295-22.716-12.458-35.39-8.089-56.711 19.507-52.805-18.531-52.684-54.201 0.342-110.911-1.455-221.853 1.147-332.67 1.395-58.88-16.363-86.258-80.913-84.259-248.223 7.685-201.802-36.971-206.388 201.894-2.819 148.222-0.898 148.253-150.764 148.128-102.791-0.093-102.698-0.093-102.635-101.38 0.031-63.357-1.054-126.731-0.218-190.073 0.496-39.526-16.3-59.375-56.617-57.392-2.634 0.154-5.3 0.031-7.903-0.156-221.075-13.387-221.075-13.387-221.57 250.332z"  horiz-adv-x="1024" />

    
    <glyph glyph-name="qingjia" unicode="&#58980;" d="M762.771 320.195l-5.28 2.096 4.478 3.494c33.278 25.989 52.37 64.825 52.37 106.549 0 74.74-61.207 135.548-136.453 135.548-75.249 0-136.463-60.809-136.463-135.548 0-41.717 19.090-80.549 52.365-106.549l4.479-3.494-5.275-2.096c-87.913-34.912-144.722-118.027-144.722-211.734v-46.268c0-10.963 8.98-19.88 20.018-19.88h419.183c11.033 0 20.017 8.919 20.017 19.88v46.268c0.010 93.707-56.798 176.822-144.722 211.734zM486.625 347.629c-16.766 28.408-25.828 60.977-25.828 94.939 0 92.229 66.988 169.178 155.088 185.202-51.805 62.099-129.767 101.616-216.958 101.616-155.976 0-282.416-126.442-282.416-282.416 0-146.751 111.94-267.336 255.092-281.081 12.491 73.752 53.929 138.87 115.024 181.741zM425.748 416.393l-141.022-141.013-59.013 43.435 122.942 122.886v199.493h77.092v-224.801z"  horiz-adv-x="1024" />

    
    <glyph glyph-name="shuaxin" unicode="&#58923;" d="M511.552304 671.225677 511.552304 831.486684l-228.944296-228.944296 228.944296-228.943272L511.552304 579.647959c151.10344 0 274.733155-123.629715 274.733155-274.732132 0-151.104463-123.628692-274.734178-274.733155-274.734178-151.104463 0-274.734178 123.628692-274.734178 274.734178L145.24143 304.915827c0-201.471594 164.840302-366.311897 366.311897-366.311897 201.470571 0 366.310873 164.840302 366.310873 366.311897C877.863177 506.385375 713.022874 671.225677 511.552304 671.225677L511.552304 671.225677z"  horiz-adv-x="1024" />

    
    <glyph glyph-name="jinggao" unicode="&#58948;" d="M559.652811 129.369695c-12.925381-12.961196-28.559453-19.407002-46.729278-19.407002-18.171871 0-34.18252 6.445806-47.176462 19.407002-13.440104 13.026688-19.885909 28.592198-19.885909 47.175439 0 18.171871 6.445806 34.250058 19.885909 47.176462 12.993942 13.473873 29.004591 19.953448 47.176462 19.953448 18.169825 0 33.770128-6.478552 46.729278-19.953448 13.473873-12.926404 19.919678-29.004591 19.919678-47.176462C579.57249 157.961894 573.126684 142.396383 559.652811 129.369695zM464.924333 574.351326c12.514012 13.406335 28.594245 20.331048 47.999201 20.331048 19.473517 0 35.518958-6.479575 48.067762-20.331048 12.135388-13.405311 18.581194-30.308283 18.581194-50.6731 0-17.279548-25.987884-145.847739-35.005258-239.34211l-62.774719 0c-7.371898 93.529163-35.930327 222.097354-35.930327 239.34211C445.862185 543.598928 452.342784 560.500876 464.924333 574.351326zM940.146709 137.186731 590.407256 747.456872c-42.822294 74.432223-112.557542 74.432223-155.344021 0L85.322759 137.186731c-42.787502-74.398454-7.817036-135.426389 77.895091-135.426389l699.44616 0C947.930999 1.760342 983.002772 62.787254 940.146709 137.186731z"  horiz-adv-x="1024" />

    
    <glyph glyph-name="xiangyou2" unicode="&#59254;" d="M512-64c-247.039484 0-448 200.960516-448 448S264.960516 832 512 832 960 631.039484 960 384 759.039484-64 512-64zM512 768c-211.744443 0-384-172.255557-384-384s172.255557-384 384-384 384 172.255557 384 384S723.744443 768 512 768zM732.959548 394.847574c-0.032684 0.127295-0.192662 0.25631-0.25631 0.383604-1.536138 3.615858-3.648542 7.071738-6.591802 10.047682-0.032684 0.032684-0.063647 0.032684-0.096331 0.063647-0.032684 0.032684-0.032684 0.063647-0.063647 0.096331l-158.911974 159.359226c-12.480043 12.480043-32.704421 12.576374-45.248112 0.063647-12.512727-12.480043-12.54369-32.735385-0.063647-45.248112l103.328907-103.616181L320 415.99742c-17.664722 0-31.99914-14.336138-31.99914-32.00086s14.336138-32.00086 31.99914-32.00086l306.752748 0-106.112189-104.959656c-12.576374-12.447359-12.672705-32.671738-0.25631-45.248112 6.239161-6.335493 14.496116-9.504099 22.751351-9.504099 8.12794 0 16.25588 3.103239 22.496761 9.247789l160.25545 158.495686C735.328262 369.407553 737.72794 383.232791 732.959548 394.847574z"  horiz-adv-x="1024" />

    
    <glyph glyph-name="xiangzuo2" unicode="&#59258;" d="M512-64c-247.039484 0-448 200.960516-448 448S264.960516 832 512 832 960 631.039484 960 384 759.039484-64 512-64zM512 768c-211.744443 0-384-172.255557-384-384s172.255557-384 384-384 384 172.255557 384 384S723.744443 768 512 768zM290.367854 371.647252c0.032684-0.127295 0.192662-0.25631 0.25631-0.383604 1.536138-3.615858 3.648542-7.071738 6.591802-10.047682 0.032684-0.032684 0.063647-0.032684 0.096331-0.063647s0.032684-0.063647 0.063647-0.096331l158.911974-159.359226c12.480043-12.512727 32.704421-12.576374 45.248112-0.063647 12.512727 12.480043 12.54369 32.704421 0.063647 45.248112l-103.327187 103.616181 305.056632 0c17.664722 0 31.99914 14.336138 31.99914 32.00086s-14.336138 32.00086-31.99914 32.00086L396.576374 414.499126l106.112189 104.959656c12.576374 12.447359 12.672705 32.671738 0.25631 45.248112-6.240882 6.335493-14.496116 9.504099-22.751351 9.504099-8.12794 0-16.25588-3.103239-22.496761-9.247789l-160.25545-158.495686C288.00086 397.087273 285.632146 383.296439 290.367854 371.647252z"  horiz-adv-x="1024" />

    
    <glyph glyph-name="fenxiang" unicode="&#59030;" d="M826.75698027 533.92554667c90.96891947 0 164.82706773 73.8657888 164.82706773 164.8314336 0 90.76917013-73.85814827 164.82706773-164.82706773 164.82706773s-164.8423488-74.0578976-164.8423488-164.82706773c0-8.1689856 0.76516053-15.95157013 1.9047136-23.7417952L317.2574624 541.7157717299999c-30.18507733 31.89877333-72.72623467 52.02543253-120.01444267 52.02543254-90.75825493 0-164.82706773-73.8657888-164.82706773-164.82706774s74.0688128-164.83470827 164.82706773-164.83470826c35.50845227 0 68.35576213 11.39662933 95.14509974 30.3837344l234.89216106-156.47143147c-9.6796576-21.08392853-15.1744032-44.24721387-15.1744032-68.74543787 0-90.96127893 73.85050773-164.8314336 164.81178667-164.8314336 90.97656 0 164.8423488 73.87015467 164.8423488 164.8314336S767.8931328 234.07445332999998 676.9165728 234.07445332999998c-44.797344 0-85.44252053-18.0396608-115.06546133-47.09282453L334.92163733 338.32834347000005c17.09439787 26.0209024 27.3438336 57.1621568 27.3438336 90.58579306 0 21.6449728-4.37156373 42.3381344-11.95876586 61.33397227l332.6984032 127.99568533C711.300752 567.9200512 765.04424853 533.92554667 826.75698027 533.92554667L826.75698027 533.92554667zM197.24301973 324.09047039999996c-57.73193387 0-104.8160256 46.90071573-104.8160256 104.82366613 0 57.91858453 47.08409173 105.01140907 104.8160256 105.01140907 57.92731733 0 105.01140907-47.09282453 105.01140907-105.01140907C302.25442987 370.99227733 255.16924587 324.09047039999996 197.24301973 324.09047039999996L197.24301973 324.09047039999996zM676.9165728 174.07105279999996c57.73193387 0 104.83239893-47.09282453 104.83239893-104.82366613 0-57.91858453-47.10046507-105.0190496-104.83239893-105.0190496-57.90330347 0-105.00376853 47.10046507-105.00376853 105.0190496C571.91280427 126.97822827000005 619.01326933 174.07105279999996 676.9165728 174.07105279999996L676.9165728 174.07105279999996zM826.75698027 803.5806464c57.91858453 0 105.0190496-47.0960992 105.0190496-104.82366613 0-57.91531093-47.10046507-105.01577493-105.0190496-105.01577494-57.72429333 0-104.8160256 47.10046507-104.8160256 105.01577494C721.9409536 756.48454827 769.03268693 803.5806464 826.75698027 803.5806464L826.75698027 803.5806464z"  horiz-adv-x="1024" />

    
    <glyph glyph-name="duihaocheckmark17" unicode="&#59248;" d="M730.688 566.88 432 268.192l-138.656 138.688c-12.192 12.192-32 12.192-44.192 0-12.192-12.192-12.192-32 0-44.192l156.96-156.96c1.056-1.504 1.696-3.232 3.04-4.576 6.304-6.304 14.592-9.216 22.848-8.992 8.256-0.192 16.576 2.688 22.88 8.992 1.344 1.344 1.984 3.072 3.04 4.576l316.96 316.96c12.192 12.192 12.192 32 0 44.192C762.656 579.072 742.88 579.072 730.688 566.88zM512 896C229.216 896 0 666.784 0 384c0-282.784 229.216-512 512-512 282.752 0 512 229.216 512 512C1024 666.784 794.784 896 512 896zM512-64C264.576-64 64 136.576 64 384 64 631.424 264.576 832 512 832c247.424 0 448-200.576 448-448C960 136.576 759.424-64 512-64z"  horiz-adv-x="1024" />

    
    <glyph glyph-name="zichanguanli" unicode="&#58941;" d="M988.254 297.95c-16.258 81.843-166.7 124.595-315.472 124.595-2.1 0-4.19-0.083-6.324-0.099v66.423l-0 123.762v123.759c0 91.512-159.454 139.381-316.959 139.381-157.515-0.001-316.955-47.87-316.955-139.381v-495.088c0-91.481 159.439-139.342 316.955-139.342 2.127 0 4.217 0.034 6.365 0.052v-66.41c0-91.49 159.436-139.387 316.918-139.387 157.527 0 316.996 47.897 316.996 139.387l-0 123.786v138.562l-1.524 0zM672.782-49.6c-160.372 0-262.701 50.463-262.701 85.201 0 9.368 7.642 19.884 21.657 30.214 61.13-30.271 151.376-45.831 241.044-45.831 89.702 0 179.979 15.559 241.112 45.831 14.030-10.331 21.672-20.846 21.672-30.214 0-34.737-102.361-85.201-262.784-85.201zM86.758 241.301c0 9.38 7.663 19.861 21.66 30.209 61.148-30.244 151.419-45.798 241.081-45.798 2.127 0 4.217 0.051 6.365 0.051v-69.512c-2.148 0-4.177-0.123-6.365-0.123-160.38-0.002-262.741 50.446-262.741 85.173zM884.39 112.204c-11.25-5.223-24.038-10.193-38.578-14.723-44.211-13.663-103.090-23.257-173.030-23.257-69.924 0-128.776 9.593-172.951 23.257-13.183 4.119-25.020 8.537-35.466 13.204-1.084 0.521-2.047 0.998-3.127 1.519-11.785 5.43-21.657 11.192-29.501 16.958-1.809 1.336-3.534 2.655-5.14 4.035-10.398 8.779-16.126 17.55-16.4 25.514 0 0.217-0.118 0.442-0.118 0.676 0 9.352 7.642 19.833 21.622 30.163 15.56-7.676 32.966-14.41 51.783-20.187 12.189-3.737 24.934-7.069 38.173-9.994 5.292-1.198 10.652-2.281 16.093-3.313 17.298-3.297 35.229-5.969 53.543-7.948 8.553-0.927 17.21-1.727 25.879-2.316 18.398-1.371 37.025-2.048 55.607-2.048 18.619 0 37.226 0.676 55.654 2.048 33.14 2.352 65.466 6.949 95.54 13.577 33.624 7.448 64.352 17.532 89.964 30.179 13.985-10.33 21.627-20.811 21.627-30.163 0-9.368-7.642-19.848-21.672-30.225-7.848-5.764-17.697-11.527-29.505-16.956zM137.936 317.884c-11.808 5.477-21.68 11.195-29.518 16.99-13.997 10.348-21.66 20.846-21.66 30.207 0 9.352 7.663 19.849 21.626 30.181 25.615-12.679 56.359-22.755 90.002-30.181 30.047-6.672 62.432-11.19 95.585-13.604 18.378-1.336 36.957-2.013 55.529-2.013 13.826 0 27.69 0.356 41.444 1.13-8.859-7.573-16.179-15.755-21.875-24.528-8.471-12.985-13.204-27.273-13.204-42.908v-3.112c-2.148-0.018-4.177-0.15-6.365-0.15-69.926 0-128.809 9.587-173.001 23.312-14.54 4.49-27.313 9.482-38.561 14.676zM86.758 488.868c0 9.324 7.663 19.831 21.642 30.177 25.598-12.68 56.306-22.739 89.951-30.177 30.025-6.668 62.384-11.227 95.539-13.605 18.349-1.34 37.003-2.033 55.61-2.033 18.61 0 37.219 0.695 55.611 2.033 33.153 2.378 65.512 6.937 95.553 13.605 33.626 7.438 64.328 17.498 89.922 30.177 14-10.346 21.705-20.852 21.705-30.177 0-9.383-7.688-19.881-21.672-30.212-7.844-5.803-17.716-11.53-29.492-16.991-11.283-5.223-24.033-10.193-38.586-14.695-44.195-13.7-103.095-23.308-173.042-23.308-69.963 0-128.849 9.608-173.040 23.308-14.559 4.502-27.315 9.472-38.523 14.695-11.808 5.461-21.698 11.187-29.552 16.991-13.963 10.331-21.626 20.829-21.626 30.212zM86.758 612.63c0 9.339 7.663 19.836 21.66 30.194 25.622-12.696 56.325-22.773 90.007-30.194 30.103-6.688 62.501-11.229 95.715-13.603 18.31-1.335 36.839-2.032 55.36-2.032 18.502 0 37.031 0.697 55.341 2.032 33.236 2.374 65.629 6.914 95.754 13.603 33.643 7.421 64.398 17.499 89.991 30.194 14-10.359 21.705-20.855 21.705-30.194 0-9.343-7.705-19.876-21.705-30.22-7.845-5.799-17.7-11.504-29.516-16.991-11.226-5.174-24.037-10.191-38.579-14.691-44.177-13.711-103.061-23.298-172.991-23.298-69.926 0-128.809 9.586-173.001 23.298-14.541 4.499-27.336 9.517-38.562 14.691-11.808 5.487-21.68 11.192-29.518 16.991-13.998 10.345-21.66 20.877-21.66 30.22z"  horiz-adv-x="1024" />

    
    <glyph glyph-name="baoxiao" unicode="&#58924;" d="M401.257 276.802c0 38.161 7.681 74.529 21.577 107.644h-163.606c-2.531 0-4.582 2.051-4.582 4.582v53.98c0 2.531 2.051 4.583 4.582 4.583h181.295c2.531 0 4.583-2.051 4.583-4.582v-16.165c22.164 34.578 51.767 63.931 86.547 85.805h-272.425c-2.531 0-4.582 2.051-4.582 4.583v53.98c0 2.531 2.051 4.582 4.582 4.582h329.489c2.531 0 4.583-2.051 4.583-4.582v-29.654c27.193 8.866 56.227 13.661 86.379 13.661 6.419 0 12.786-0.222 19.096-0.651v148.603c0 11.391-9.234 20.625-20.625 20.625h-507.776c-11.391 0-20.625-9.234-20.625-20.625v-637.458c0-11.391 9.234-20.625 20.625-20.625h354.892c-74.764 49.924-124.011 135.065-124.011 231.711zM361.080 261.206c0-2.531-2.051-4.583-4.583-4.583h-97.267c-2.531 0-4.582 2.051-4.582 4.583v53.98c0 2.531 2.051 4.582 4.582 4.582h97.267c2.531 0 4.582-2.051 4.582-4.582l0.001-53.98zM679.678 509.405c-128.463 0-232.602-104.139-232.602-232.602s104.139-232.602 232.602-232.602 232.602 104.139 232.602 232.602-104.139 232.602-232.602 232.602zM771.992 289.908v-30.065h-73.427v-41.436h73.427v-30.45h-73.427v-60.322h-37.774v60.322h-76.126v30.45h76.126v41.436h-76.126v30.065h63.419l-70.042 128.423h42.592c3.742-6.839 57.515-117.68 58.286-119.378l62.113 119.378h40.279l-72.341-128.423 63.019 0.001z"  horiz-adv-x="1024" />

    
    <glyph glyph-name="zuzhiguanli" unicode="&#59063;" d="M166.611 404.159h325.728v-196.172c0-11.25 9.075-20.363 20.289-20.363v0c11.211 0 20.324 9.111 20.324 20.363v196.172h325.766v-216.534c0-11.212 9.104-20.362 20.323-20.362v0c11.214 0 20.394 9.149 20.394 20.362v223.714c0 18.506-15.035 33.575-33.499 33.575h-332.986v88.832c0 11.25-9.113 20.363-20.324 20.363v0c-11.214 0-20.289-9.111-20.289-20.363v-88.832h-332.915c-18.533 0-33.57-15.070-33.57-33.575v-223.714c0-11.212 9.149-20.362 20.395-20.362v0c11.211 0 20.362 9.149 20.362 20.362v216.534h0.001zM248.016 134.431h-203.53c-11.289 0-20.362-9.109-20.362-20.325v-197.33c0-11.245 9.073-20.426 20.362-20.426h203.531c11.248 0 20.362 9.181 20.362 20.426v197.33c-0.001 11.245-9.113 20.325-20.363 20.325v0 0 0zM614.464 134.431h-203.567c-11.25 0-20.362-9.109-20.362-20.325v-197.33c0-11.245 9.111-20.426 20.362-20.426h203.567c11.181 0 20.324 9.181 20.324 20.426v197.33c-0.037 11.245-9.143 20.325-20.324 20.325v0 0 0zM980.874 134.431h-203.635c-11.145 0-20.288-9.109-20.288-20.325v-197.33c0-11.245 9.143-20.426 20.288-20.426h203.635c11.181 0 20.362 9.181 20.362 20.426v197.33c0 11.245-9.182 20.325-20.362 20.325v0 0 0zM349.817 587.362h325.689c11.212 0 20.363 9.113 20.363 20.363v243.685c0 11.251-9.15 20.363-20.363 20.363h-325.689c-11.25 0-20.356-9.111-20.356-20.363v-243.653c-0.001-11.282 9.106-20.395 20.356-20.395v0 0 0z"  horiz-adv-x="1024" />

    
    <glyph glyph-name="xiazai" unicode="&#59427;" d="M450.56 75.52c4.48-4.48 10.88-7.04 16.64-8.96C471.04 64.64 475.52 64 480 64s8.96 0.64 12.8 2.56c6.4 1.28 12.16 3.84 16.64 8.96l313.6 313.6c14.08 14.08 14.08 35.84 0 49.92-14.08 14.08-35.84 14.08-49.92 0L512 177.92 512 736C512 753.92 497.92 768 480 768 462.08 768 448 753.92 448 736l0-558.08L186.88 439.04c-14.08 14.08-35.84 14.08-49.92 0-14.08-14.08-14.08-35.84 0-49.92L450.56 75.52zM864 0l-768 0C78.08 0 64-14.08 64-32 64-49.92 78.08-64 96-64l768 0c17.92 0 32 14.08 32 32C896-14.08 881.92 0 864 0z"  horiz-adv-x="1024" />

    
    <glyph glyph-name="zhaopin" unicode="&#58950;" d="M512.017321 896c-282.3197 0-512.017325-229.675204-512.017325-511.98879 0-282.324796 229.697625-512.01121 512.017325-512.01121 282.30849 0 511.994904 229.686415 511.994904 512.01121C1024.012225 666.324796 794.325811 896 512.017321 896zM512.017321-81.429438c-256.644082 0-465.429438 208.796567-465.429438 465.440648 0 256.632871 208.785357 465.418228 465.429438 465.418228 256.632871 0 465.418228-208.785357 465.418228-465.418228C977.436568 127.367129 768.650192-81.429438 512.017321-81.429438zM450.782693 306.956839l78.672728 0-18.921934-85.177748 204.077039 0c-1.978105-21.695969-3.747291-38.651008-5.326921-50.87531-2.762825-24.056242-17.739759-36.081816-44.951186-36.081816-29.190551 0-64.282805 1.182175-105.299182 3.547544 5.912913-16.955039 10.05766-32.726885 12.423029-47.32267l105.885174 0c47.71503 0 73.544535 25.630777 77.490553 76.899466 2.365369 25.238418 4.532011 55.998408 6.510116 92.278951L561.994789 260.225257l10.643652 46.730563L818.130331 306.95582l0 36.677999L450.782693 343.633819 450.782693 306.956839zM526.50508 390.957508l217.08606 0 0-13.606223 38.452281 0L782.04342 609.237972 654.859732 609.237972l0 54.417758-39.624265 0 0-54.417758L488.052799 609.237972l0-231.885668 38.452281 0L526.50508 390.957508zM654.859732 572.558953l88.731407 0 0-54.417758-88.731407 0L654.859732 572.558953zM654.859732 482.645371l88.731407 0 0-55.01496-88.731407 0L654.859732 482.645371zM526.50508 572.558953l88.731407 0 0-54.417758-88.731407 0L526.50508 572.558953zM526.50508 482.645371l88.731407 0 0-55.01496-88.731407 0L526.50508 482.645371zM427.118811 258.451994 427.118811 592.675292l39.049483 0 0 39.62936L231.917257 632.304652l0-39.62936 33.710332 0 0-365.574376c-13.009021-1.973009-25.630777-3.946019-37.855078-5.912913l10.05766-46.144571c49.693134 10.649766 99.176331 21.099786 148.470991 31.356173l0-123.635124 40.81765 0 0 132.505514 46.144571 9.466572c-2.365369 17.347399-3.747291 31.54471-4.144746 42.591931C454.529984 264.16618 440.526306 261.209723 427.118811 258.451994zM386.301161 250.167597c-27.609901-5.520554-54.224126-10.643652-79.855922-15.379486L306.445238 337.125741l79.855922 0L386.301161 250.167597zM386.301161 375.578022l-79.855922 0L306.445238 464.900517l79.855922 0L386.301161 375.578022zM386.301161 503.352797l-79.855922 0 0 89.322495 79.855922 0L386.301161 503.352797z"  horiz-adv-x="1025" />

    
    <glyph glyph-name="yidong" unicode="&#58910;" d="M959.69595 384.034792 792.498974 551.163207 792.498974 436.963259 564.963771 436.963259 564.963771 664.498462 679.162696 664.498462 511.982092 831.696462 344.819908 664.498462 459.019857 664.498462 459.019857 436.963259 231.484653 436.963259 231.484653 551.163207 64.303027 383.965208 231.484653 216.846002 231.484653 331.036741 459.019857 331.036741 459.019857 103.501538 344.819908 103.501538 512.016885-63.695438 679.162696 103.501538 564.963771 103.501538 564.963771 331.036741 792.498974 331.036741 792.498974 216.846002Z"  horiz-adv-x="1024" />

    
    <glyph glyph-name="dianzan1" unicode="&#58894;" d="M259.930519 387.26537c12.777001 0 23.050995 10.645454 23.050995 23.747867 0 13.101389-10.275018 23.787776-23.050995 23.787776-0.202615 0-0.410346-0.162706-0.654916-0.162706l-55.109132-0.12382c-1.230014 0.204661-2.539846 0.286526-3.850701 0.286526-17.362436 0-31.403221-14.69877-31.403221-32.836873l-0.329505-393.798924c0-18.139126 14.086833-32.345686 31.488155-32.345686 1.677199 0 3.355421-0.286526 4.952802 0l53.841256-0.040932c0.079818 0 0.122797-0.040932 0.207731-0.040932 0.080841 0 0.122797 0.040932 0.202615 0.040932l0.654916 0 0 0.121773c11.833513 0.49221 21.330818 10.400884 21.330818 22.683628 0 12.3247-9.497305 22.233374-21.330818 22.723537l0 0.327458-44.914956 0 1.267876 365.630375L259.930519 387.26537 259.930519 387.26537zM909.341099 421.289278c-16.989953 28.577872-41.71917 40.124859-71.688739 41.393759-1.556449 0.204661-3.115967 0.36839-4.751211 0.36839l-181.176362 0.613984c11.872399 35.499515 20.019962 77.793784 20.019962 117.550253 0 25.753547-2.828418 50.853202-7.983835 75.009368l-0.410346-0.081864c-9.373485 42.336224-45.653783 73.946153-89.051175 73.946153-50.52779 0-84.225263-43.769876-84.225263-96.466052 0-2.948145-0.245593-5.813403 0-8.67866-2.620687-98.511641-80.455403-177.698145-173.069731-188.588169l0-49.868781-0.692778-201.937199 0-208.813816 9.454326 0 441.013249-0.204661 7.696286 0.204661c17.075911-0.040932 26.694989 4.380774 42.172495 14.657838 14.69877 9.785877 25.793456 23.173792 33.080419 38.322817 1.964748 3.031033 3.524267 6.42841 4.504594 10.154267l67.928089 312.935222c0.900509 3.686972 1.188058 7.411807 0.900509 11.0558C924.450215 382.679935 920.195308 403.110243 909.341099 421.289278zM880.51661 373.220493l-73.164347-334.225107-0.121773 0.040932c-2.25332-5.608741-6.061043-10.562567-11.344373-14.043854-3.685949-2.455935-7.739265-3.930519-11.830443-4.503571-1.309832 0.204661-2.662643 0-4.053316 0l-420.741553 0.490164-0.164752 370.256742c78.82016 36.604686 136.590911 72.38868 166.353772 157.839865 0.041956-0.040932 0.12689-0.040932 0.164752-0.082888 2.663666 8.311293 5.569856 18.833951 7.696286 30.135344 4.872984 26.53126 4.627391 52.857858 4.627391 52.857858-4.377704 34.475186 22.848381 48.110741 39.141462 48.110741 22.273283-0.777713 44.301995-30.585599 44.301995-47.536666 0 0 4.952802-25.057699 4.995781-51.999304 0.041956-33.94102-4.133134-51.670823-4.133134-51.670823l-0.409322 0c-5.161556-28.046776-14.290471-54.660924-26.859741-79.022775l0.324388-0.327458c-2.087545-4.339842-3.27458-9.252735-3.27458-14.453177 0-18.138102 16.829294-19.775392 34.187637-19.775392l210.57595-0.246617c0 0 12.93766-0.408299 12.979616-0.408299l0-0.082888c10.688433 0.573051 21.330818-4.749164 27.434839-14.944364 4.831029-8.188496 5.650697-17.810644 3.067872-26.326599L880.51661 373.220493zM325.764923-24.345222c0.287549-0.040932 0.372483-0.040932 0.249687 0 0.245593 0.040932 0.325411 0.081864-0.249687 0.081864-0.569982 0-0.490164-0.040932-0.24457-0.081864C325.440535-24.386154 325.520353-24.386154 325.764923-24.345222z"  horiz-adv-x="1024" />

    
    <glyph glyph-name="wenhua" unicode="&#59050;" d="M977.454545-47.75563599999998l-278.248727 126.464-209.361455-116.317091L279.272727 55.99418200000002 46.545455-47.47636399999999 46.545455 675.746909l230.493091 153.646545L488.727273 735.278545l210.478545 93.556364L977.454545 677.096727 977.454545-47.75563599999998zM279.272727 106.91490899999997l208.290909-92.532364 209.547636 116.410182L930.909091 24.48290899999995 930.909091 649.448727l-233.751273 127.534545L488.727273 684.357818 281.506909 776.424727 93.090909 650.798545 93.090909 24.20363599999996 279.272727 106.91490899999997zM324.840727 231.749818c0-12.334545-10.007273-22.295273-22.295273-22.295273l0 0c-12.334545 0-22.295273 10.007273-22.295273 22.295273L280.250182 635.159273c0 12.334545 10.007273 22.295273 22.295273 22.295273l0 0c12.334545 0 22.295273-10.007273 22.295273-22.295273L324.840727 231.749818zM530.432 161.93163600000003c0-12.334545-10.007273-22.295273-22.295273-22.295273l0 0c-12.334545 0-22.295273 10.007273-22.295273 22.295273L485.841455 565.341091c0 12.334545 10.007273 22.295273 22.295273 22.295273l0 0c12.334545 0 22.295273-10.007273 22.295273-22.295273L530.432 161.93163600000003zM735.976727 247.249455c0-12.334545-10.007273-22.295273-22.295273-22.295273l0 0c-12.334545 0-22.295273 10.007273-22.295273 22.295273L691.386182 650.658909c0 12.334545 10.007273 22.295273 22.295273 22.295273l0 0c12.334545 0 22.295273-10.007273 22.295273-22.295273L735.976727 247.249455z"  horiz-adv-x="1024" />

    
    <glyph glyph-name="iconzhenghe62" unicode="&#59209;" d="M584.82305949 154.18725375999998L584.82305949 530.1398091799999c0 43.81214614 68.44358474 43.81214614 68.44358474 0l0-375.95255542C653.26664423 110.37137933999998 584.82305949 110.37137933999998 584.82305949 154.18725375999998L584.82305949 154.18725375999998 584.82305949 154.18725375999998 584.82305949 154.18725375999998zM379.42395365 154.18725375999998L379.42395365 530.1398091799999c0 43.81214614 68.47713917 43.81214614 68.47713918 0l0-375.95255542C447.90233558 110.37137933999998 379.42395365 110.37137933999998 379.42395365 154.18725375999998L379.42395365 154.18725375999998 379.42395365 154.18725375999998 379.42395365 154.18725375999998zM924.08197939 701.03377411L790.22092257 701.03377411l0 68.38268967c0 56.61129781-46.02922416 102.51251803-101.63886003 102.51251802L345.19967577 871.9289818c-56.69953354 0-102.69520327-45.90122021-102.69520327-102.51251802l0-68.38268967L108.64217293 701.03377411c-43.87676948 0-43.87676948-68.32055182 0-68.32055183l815.43980646 0C967.92643721 632.7132222800001 967.92643721 701.03377411 924.08197939 701.03377411L924.08197939 701.03377411 924.08197939 701.03377411 924.08197939 701.03377411zM310.98161167 769.41024998c0 18.16040426 16.03653298 34.19693724 34.21930686 34.19693725l343.38238676 0c18.18153111 0 33.16047811-13.89402036 33.16047811-34.19693725l0-68.37647587L310.98161167 701.03377411 310.98161167 769.41024998 310.98161167 769.41024998 310.98161167 769.41024998zM755.96681853-85.05584639999995L276.72377936-85.05584639999995c-56.67343565 0-102.66164884 45.89376368-102.66164884 102.50630424L174.06213052 530.1398091799999c0 20.30415963 16.03653298 34.19196621 34.21930686 34.19196621 18.18774491 0 34.22427788-13.88780658 34.22427787-34.19196621l0-512.68810859c0-18.12063604 16.06387363-34.15716901 34.21930686-34.15716902l479.24303918 0c18.18153111 0 34.25286129 16.03653298 34.25286128 34.15716902l0 511.63052261c0 44.86973213 68.44358474 44.86973213 68.44358475 0l0-511.63052261C858.66450732-39.16208272999995 812.66883758-85.05584639999995 755.96681853-85.05584639999995L755.96681853-85.05584639999995 755.96681853-85.05584639999995zM755.96681853-85.05584639999995"  horiz-adv-x="1024" />

    
    <glyph glyph-name="cuo" unicode="&#58920;" d="M602.313984-128C319.53979-128 90.310973 101.234838 90.310973 384.00301S319.53979 896 602.313984 896c282.768172 0 511.99699-229.228817 511.99699-512.00301C1114.310973 101.228817 885.082156-128 602.313984-128L602.313984-128zM602.313984 832.001129c-247.420458 0-448.002634-200.583682-448.002634-448.004139 0-247.414437 200.582177-447.998119 448.002634-447.998119 247.414437 0 447.998119 200.583682 447.998119 447.998119C1050.312102 631.417447 849.72842 832.001129 602.313984 832.001129L602.313984 832.001129zM647.746424 383.832925l135.583864-135.607947c12.500544-12.476461 12.500544-32.749769 0-45.244292-12.494523-12.499039-32.767831-12.499039-45.244292 0l-135.606442 135.583864-136.502026-136.50052c-12.605907-12.605907-33.019197-12.605907-45.602526 0-12.605907 12.599886-12.605907 33.019197 0 45.602526l136.502026 136.518583-135.583864 135.583864c-12.500544 12.500544-12.500544 32.75579 0 45.256334 12.499039 12.493018 32.748264 12.493018 45.248808 0l135.583864-135.585369 137.518024 137.519529c12.605907 12.581824 33.020702 12.581824 45.608547 0 12.599886-12.599886 12.599886-33.020702 0-45.626609L647.746424 383.832925 647.746424 383.832925zM647.746424 383.832925"  horiz-adv-x="1205" />

    
    <glyph glyph-name="guanli-copy" unicode="&#58881;" d="M89.293 754.497q20.972 25.632 41.943 47.769 16.311 19.807 34.37 37.283t27.379 25.632q12.816 10.485 27.379 18.641t39.030 8.156h503.316q15.146 0 34.953-6.407t38.448-26.214q9.321-11.651 24.467-29.127t29.127-33.788q16.311-19.807 32.622-41.943h-833.036zM1035.342 406.137q0-37.283-24.467-62.914t-69.905-25.632h-860.997q-44.273 0-70.487 25.632t-26.214 62.914v166.607q0 37.283 23.301 64.080t75.73 26.797h857.502q53.594 0 74.565-26.797t20.972-64.080v-166.607zM596.105 490.022q0 15.146-7.573 21.554t-20.389 6.407h-117.674q-12.816 0-20.972-8.156t-8.156-19.807q1.165-15.146 8.738-22.137t20.389-6.991h117.674q26.797 0 27.962 29.127zM1031.846-15.623q0-37.283-28.545-64.080t-72.818-25.632h-854.006q-37.283 0-66.992 26.214t-29.71 72.818v156.122q0 38.448 23.884 64.662t76.313 26.214h855.172q48.933 0 72.818-26.214t23.884-63.498v-166.607zM592.61 67.097q0 11.651-7.573 19.807t-20.389 8.156h-117.674q-12.816 0-20.972-8.156t-8.156-19.807 8.156-19.807 20.972-8.156h117.674q12.816 0 20.389 8.156t7.573 19.807z"  horiz-adv-x="1024" />

    
    <glyph glyph-name="zhaopian" unicode="&#59364;" d="M927.990343 822.880679 96.043427 822.880679c-53.0441 0-96.043427-42.116213-96.043427-94.083795L0 39.203116c0-51.962465 42.999326-94.083795 96.043427-94.083795l831.946916 0c53.0441 0 96.043427 42.12133 96.043427 94.083795L1024.033769 728.796884C1024.034792 780.763442 981.035466 822.880679 927.990343 822.880679L927.990343 822.880679zM96.014774 760.185778l832.006268 0c17.681708 0 32.007995-14.043854 32.007995-31.359218l0-369.229343c-51.567469 41.453111-140.973732 97.346095-248.228501 97.346095-98.887194 0-196.388832-75.070766-290.667056-147.669224-72.233138-55.614645-146.93756-113.13571-199.35335-113.13571-73.520457 0-136.453788 52.946886-157.782559 73.139787L63.99757 728.825536C63.996546 746.141924 78.333066 760.185778 96.014774 760.185778L96.014774 760.185778zM319.680856 383.656169c70.794369 0 128.178311 56.219419 128.178311 125.564787 0 69.350484-57.383942 125.564787-128.178311 125.564787-70.789253 0-128.178311-56.214303-128.178311-125.564787C191.502545 439.875588 248.891603 383.656169 319.680856 383.656169L319.680856 383.656169zM320.15874 572.086749c35.245735 0 63.821561-27.980261 63.821561-62.514799 0-34.529421-28.574802-62.518892-63.821561-62.518892-35.250852 0-63.816444 27.994588-63.816444 62.518892S284.913005 572.086749 320.15874 572.086749L320.15874 572.086749z"  horiz-adv-x="1025" />

    
    <glyph glyph-name="gongzuotai-copy" unicode="&#58884;" d="M540.3511466666666-105.08287999999993h390.53539555555557v390.5342577777777h-390.53539555555557v-390.5342577777777zM581.5785244444445 244.22400000000005h308.08064v-308.08064h-308.08064v308.08064zM35.74556444444448-105.08287999999993h390.5376711111111v390.5342577777777h-390.5376711111111v-390.5342577777777zM81.37386666666669 239.8185244444445h299.27651555555553v-299.28220444444446h-299.27651555555553v299.28220444444446zM35.74556444444448 387.8764088888889h390.5376711111111v390.5376711111111h-390.5376711111111v-390.5376711111111zM81.37386666666669 732.7869155555555h299.27651555555553v-299.28448000000003h-299.27651555555553v299.28448000000003zM1011.7745777777777 598.6713599999999l-276.1489066666666 276.15004444444446-276.1568711111111-276.15004444444446 276.1568711111111-276.1568711111111 276.1489066666666 276.1568711111111zM735.6256711111112 812.128711111111l213.4528-213.4573511111111-213.4528-213.45962666666665-213.46645333333333 213.45962666666665 213.46645333333333 213.4573511111111z"  horiz-adv-x="1024" />

    
    <glyph glyph-name="weibiaoti545" unicode="&#58931;" d="M407.692 602.907v205.855l-402.307-364.969 402.307-365.049v220.746c111.773 0 457.045 0 606.054-341.344v37.927c0 151.708-149.029 639.127-606.054 606.83z"  horiz-adv-x="1024" />

    
    <glyph glyph-name="bianji3" unicode="&#59086;" d="M898.72818467 433.48519478c-19.78232183 0-35.87495747-16.04139059-35.87495747-35.7604088l0-323.38707483c0-29.53406423-16.56590389-60.08249044-44.28979261-60.08249045L215.39479762 14.255220699999995c-13.8709872 0-29.54913638 7.15328718-41.94153689 19.13572157-12.61094749 12.1949528-19.84411723 27.11798311-19.84411723 40.94676742L153.6091435 701.29035254c0 27.56864389 31.94713035 46.08791101 61.78565412 46.08791101l327.35258309 0c19.71751143 0 35.76040879 16.09414387 35.7604088 35.87495747s-16.04139059 35.87495747-35.7604088 35.87495747L215.39479762 819.12817849c-32.63593203 0-64.34944324-10.72691649-89.30003797-30.20477877-28.11275114-21.94368164-44.23703932-53.88478342-44.23703932-87.63455394l0-626.9526414c0-32.26666205 14.92755211-65.70142266 40.9543042-91.72968301 25.48565987-25.48565987 59.23090862-40.10272236 92.58427988-40.10272238l603.16863843 0c34.096433 0 64.89958055 15.40684895 86.73624887 43.38395072 18.8960739 24.21054654 29.30345867 55.62261319 29.30345866 88.44845615L934.60465037 397.72478598C934.60314212 417.44380418 918.50899972 433.48519478 898.72818467 433.48519478zM469.86403187 353.19836073c8.25205351-8.25205351 19.22464921-12.79784336 30.89358046-12.7978434 11.66893274 0 22.64001868 4.54578837 30.89207368 12.7978434l397.71886604 397.71886603c17.03314362 17.03314362 17.03314362 44.74798875 0 61.78113234-8.25205351 8.25205351-19.22314096 12.7963366-30.89207368 12.7963366-11.66893274 0-22.64001868-4.5442816-30.89207369-12.7963366L469.86403187 414.98099984C452.83239504 397.9478562 452.83239504 370.23150432 469.86403187 353.19836073z"  horiz-adv-x="1024" />

    
    <glyph glyph-name="bumen" unicode="&#58938;" d="M745.912 355.388c76.089 41.085 127.198 121.858 127.198 214.052 0 134.634-109.697 243.673-243.633 243.673-134.634 0-243.673-109.697-243.673-243.673 0-92.194 51.807-172.967 127.198-214.052-160.887-49.795-277.979-199.918-277.979-376.993 0-12.737 10.765-23.5 23.541-23.5s23.541 10.765 23.541 23.5c0 191.209 155.505 347.412 347.371 347.412 191.21 0 347.331-155.547 347.331-347.412 0-12.737 10.765-23.5 23.5-23.5 12.818 0 23.665 10.765 23.665 23.5-0.739 177.731-117.831 327.198-278.061 376.993zM432.887 570.138c0 108.34 88.209 196.549 196.59 196.549s196.549-88.209 196.549-196.549c0-108.382-88.168-196.59-196.549-196.59s-196.59 87.51-196.59 196.59zM349.446 339.242c11.422 0 20.871 9.408 20.871 20.871 0 11.422-9.45 20.871-20.871 20.871v0 0c-96.262 0-174.363 78.061-174.363 174.322s78.102 174.363 174.363 174.363v0c11.422 0 20.871 9.408 20.871 20.871 0 11.422-9.45 20.83-20.871 20.83v0c-119.145 0-216.064-96.919-216.064-216.064 0-82.129 45.769-153.451 113.065-189.811-142.687-44.454-246.343-177.075-246.343-333.854 0-11.504 9.408-20.871 20.83-20.871 11.463 0 20.871 9.367 20.871 20.871 0 169.597 138.002 307.601 307.642 307.601v0z"  horiz-adv-x="1024" />

    
    <glyph glyph-name="xietong" unicode="&#58897;" d="M516.617 642.574c0 67.438-25.29 130.661-71.653 177.024-50.579 50.536-109.588 75.868-181.24 75.868-67.438 0-130.661-25.332-177.024-75.868-50.579-46.406-75.868-109.629-75.868-177.024 0-71.653 25.29-130.703 75.868-181.24 37.933-37.933 84.297-63.223 134.876-71.653v-139.092c-25.29-8.43-50.579-21.074-71.653-42.149-33.719-37.933-54.793-84.297-54.793-134.876 0-54.793 21.075-96.942 54.793-134.876 37.933-37.933 84.297-54.793 134.876-54.793 54.793 0 96.942 16.818 134.876 54.793 37.933 37.933 54.793 80.083 54.793 134.876 0 12.645 0 29.504-4.215 42.149l307.687 185.413c25.29-25.29 59.008-37.891 96.942-37.891 42.149 0 75.868 12.645 105.372 42.149 29.504 29.504 42.149 63.223 42.149 105.372 0 37.891-12.645 75.868-42.149 105.372-29.504 25.29-63.223 42.149-105.372 42.149-37.933 0-75.868-16.859-105.372-42.149 0-4.257-4.215-8.43-8.43-12.645l-244.462 101.115c0 12.686 0 25.332 0 37.977v0zM487.113 520.344l244.462-92.727c-4.215-8.387-4.215-12.645-4.215-16.818 0-16.859 4.215-29.504 8.43-42.149l-307.687-172.853c-4.215 4.257-8.43 8.43-8.43 12.686-33.719 29.463-67.438 46.364-113.801 50.536v130.661c54.793 8.43 96.942 33.719 139.092 71.653 16.859 21.075 33.719 37.933 42.149 59.008v0z"  horiz-adv-x="1024" />

    
    <glyph glyph-name="kaoqin1" unicode="&#59287;" d="M509.7727402666667 421.8399530666667c76.91224 0 139.30935786666666 63.2779808 139.30935786666666 140.94883093333334 0 77.65993493333333-62.39711893333333 140.93354986666665-139.30935786666666 140.93354986666665-76.90459946666667-0.004365866666666667-139.30171733333333-63.273614933333334-139.30171733333333-140.93354986666665C370.47102186666666 485.1179338666667 432.8681408 421.8399530666667 509.7727402666667 421.8399530666667zM509.76728213333337 658.0179317333333c51.5156896 0 93.60058986666667-42.664500266666664 93.60058986666667-95.22914773333333 0-52.5744704-42.07507626666666-95.24006293333333-93.60058986666667-95.24006293333333-51.51678186666666-0.008731733333333333-93.60058986666667 42.65576853333334-93.60058986666667 95.24006293333333C416.16669226666664 615.3534314666667 458.2505013333333 658.0179317333333 509.76728213333337 658.0179317333333zM433.9596672 89.42207253333345c11.0997344-14.739975466666667 21.5707488-28.212688 31.170725333333333-40.24567786666667 6.250081066666667-7.831703466666666 11.137937066666666-13.8056288 14.4911072-17.835544533333334l12.143233066666665-14.539134933333335c9.114247466666665-10.909808 25.87245546666667-10.946920533333333 35.029272533333334-0.05785066666666666l12.185802666666666 14.5009312 0.009824 0.009824c1.2487061333333334 1.4866591999999998 2.8194133333333333 3.3826410666666664 4.839829333333333 5.830935466666666 2.9252917333333333 3.5540106666666667 6.183498666666667 7.5653706666666665 9.747332266666666 12.005701333333333 9.670925866666666 12.032989866666666 20.198699733333335 25.514434133333335 31.374840533333334 40.2544096 31.04083413333333 40.979184000000004 61.73019626666667 84.70246506666668 90.16992213333333 129.7006496C756.3355029333334 347.56593280000004 804.7272437333334 462.432736 804.3364778666667 553.86992 803.6117034666668 723.0827424 671.767296 861.1586752000001 509.7727402666667 861.1586752000001c-162.6723936 0-294.55063893333335-138.13378453333334-294.55063893333335-307.45030080000004 0-91.33239786666667 48.2956864-206.1424416 129.0817536-334.61403199999995C372.59622506666665 174.10379839999996 403.1043936 130.39034133333337 433.9596672 89.42207253333345zM509.78147199999995 815.4444490666667c136.308752 0 248.25135466666666-117.22886613333333 248.86915946666667-261.7742784 0.34273919999999997-80.2806912-45.27543253333333-188.55467306666665-122.15492586666666-310.21404586666665-27.686572799999997-43.81824426666667-57.660984533333334-86.50239253333334-87.9595808-126.51884906666668-10.899985066666666-14.387412266666667-21.171250133333334-27.526118399999998-30.574752-39.23492373333333-3.1239488-3.88256-5.9859317333333335-7.409282133333334-8.593589333333334-10.5768928-2.5792778666666667 3.1599690666666667-5.416154666666667 6.669227733333333-8.508450133333334 10.548513066666667-9.3467424 11.710988799999999-19.551425066666663 24.857335466666665-30.384826666666665 39.24583893333333-30.121768533333334 39.9968096-59.920444800000006 82.68095786666666-87.46948479999999 126.50029333333333C306.49228160000007 365.0980341333333 260.9363264 473.3894805333333 260.9363264 553.6985504 260.9363264 698.2352298666667 372.83417706666665 815.4444490666667 509.78147199999995 815.4444490666667zM966.8986272-64.43187733333343L880.3394752 260.72953386666666c-2.6676906666666667 10.013665066666666-11.728453333333333 16.978696533333334-22.076125866666665 16.978696533333334l-86.5602432 0c-12.623505066666667 0-22.856567466666668-10.231970133333334-22.856567466666668-22.847834666666664 0-12.623505066666667 10.2330624-22.856567466666668 22.856567466666668-22.856567466666668l69.00303786666666 0 74.39299626666666-279.45700906666667L108.9019509333333-47.45318186666668l74.39190506666667 279.45700906666667 47.37116373333333 0c12.619139200000001 0 22.8522016 10.2330624 22.8522016 22.856567466666668 0 12.615864533333333-10.2330624 22.847834666666664-22.8522016 22.847834666666664l-64.92727786666667 0c-10.360770133333332 0-19.41716693333333-6.965031466666666-22.080491733333332-16.978696533333334L57.0991893333333-64.43187733333343c-3.864004266666667-14.5009312 7.074183466666667-28.72679786666667 22.080491733333332-28.72679786666667l865.6428202666667 0C959.8288096-93.15976639999997 970.7669973333334-78.9328085333334 966.8986272-64.43187733333343z"  horiz-adv-x="1024" />

    
    <glyph glyph-name="xietongbangong" unicode="&#58892;" d="M235.232-11.996c-127.325 0-230.543 104.953-230.543 234.416 0 97.218 58.203 180.614 141.113 216.128-1.838 13.643-2.787 27.575-2.787 41.731 0 168.305 134.182 304.742 299.706 304.742 158.142 0 287.676-124.54 298.913-282.425 7.85 0.745 15.804 1.125 23.845 1.125 140.059 0 253.597-115.449 253.597-257.859 0-134.51-101.29-244.964-230.542-256.807v-1.052c0-0.001-553.303-0.001-553.303-0.001zM338.081 324.201c-5.571 5.662-14.516 5.753-20.261-0.086l-27.623-28.070c-5.618-5.71-5.659-14.939 0.474-21.189l114.386-116.595c5.881-5.994 15.379-6.044 20.383-0.96l207.129 210.429c5.378 5.462 5.31 14.39-0.437 20.229l-27.625 28.070c-5.618 5.71-14.582 5.856-20.799-0.46l-167.772-170.482-77.856 79.115z"  horiz-adv-x="1024" />

    
    <glyph glyph-name="baocun3" unicode="&#59274;" d="M558.45071531 554.62860459c23.39767296 0 42.36753237 18.97102336 42.36753237 42.36753237l0 84.73622983c0 23.40000199-18.97102336 42.36753237-42.36753237 42.36753238-23.40000199 0-42.36753237-18.96753038-42.36753238-42.36753238l0-84.73622983C516.08201899 573.59962795 535.04954937 554.62860459 558.45071531 554.62860459zM976.33600285 596.84128541l-0.28408832 0.70323427L687.10648263 886.04286179l-0.32367388 0.1501935c-3.88408775 4.44760747-9.41565383 7.39560221-15.78201998 7.3956022L177.14874254 893.58865863c-70.19767694 0-127.10376221-56.90608526-127.1037622-127.1037622l0-762.62490226c0-70.19767694 56.90608526-127.10376221 127.1037622-127.1037622l677.88867243 0c70.19767694 0 127.10376221 56.90608526 127.1037622 127.1037622L982.14117831 582.45059925C982.14117831 588.04387271 979.87545998 593.0561627 976.33600285 596.84128541zM177.14292167 554.62860459L177.14292167 724.10106311c0 23.40000199 18.96753038 42.36753237 42.36753238 42.36753238l423.67998406 0c23.40000199 0 42.36753237-18.96753038 42.36753238-42.36753238l0-169.47245966c0-23.39767296-18.96753038-42.36753237-42.36753238-42.36753238L219.51161799 512.2610710700001C196.11045205 512.2610710700001 177.14292167 531.23093049 177.14292167 554.62860459zM855.03741611 46.20191175000002c0-23.39767296-18.96753038-42.36753237-42.36753238-42.36753237L219.51627605 3.834379379999973c-23.40000199 0-42.36753237 18.97102336-42.36753237 42.36753237L177.14874254 385.14683107c0 23.40000199 18.96753038 42.36753237 42.36753237 42.36753238l593.1524426 0c23.40000199 0 42.36753237-18.96753038 42.36753238-42.36753238L855.03625102 46.20191175000002z"  horiz-adv-x="1024" />

    
    <glyph glyph-name="jieshushijian1" unicode="&#59023;" d="M512 874.824c-271.053 0-490.824-219.689-490.824-490.824 0-271.114 219.75-490.824 490.824-490.824 271.114 0 490.824 219.709 490.824 490.824 0 271.135-219.709 490.824-490.824 490.824v0zM675.594 253.092c0-18.043-14.664-32.707-32.707-32.707l-261.775-0c-18.043 0-32.707 14.664-32.707 32.707v261.796c0 18.063 14.664 32.707 32.707 32.707h261.796c18.043 0 32.707-14.643 32.707-32.707l0-261.796h-0.020z"  horiz-adv-x="1024" />

    
    <glyph glyph-name="shouye-shouye" unicode="&#58930;" d="M519.232 832L64 372.352h143.616V-64h234.112l-0.96 292.032h145.664v-291.008h230.144v434.24H960L519.232 832z"  horiz-adv-x="1024" />

    
    <glyph glyph-name="jiantou" unicode="&#58908;" d="M636.4555275377777-31.136006826666744l363.63455715555557 363.7044542577778c28.400412444444445 28.41905152 28.400412444444445 74.4417234488889 0 102.87358976L636.4555275377777 799.1453263644444c-28.406237866666668 28.406237866666668-74.43473408 28.406237866666668-102.84097194666667 0-28.39924736-28.39924736-28.39924736-74.4417234488889 0-102.86077610666666l239.4865777777778-239.51220622222223H75.94025528888892c-40.173437155555554 0-72.72108714666666-32.56628792888889-72.72108714666666-72.74555050666666 0-40.19324131555555 32.54648376888889-72.7711800888889 72.72108714666666-72.77117895111111h697.16087808L533.6145555911112 71.71195448888898c-14.180984604444443-14.180984604444443-21.305843484444445-32.781804657777776-21.305842346666665-51.42106794666667 0-18.613634844444444 7.087579591111111-37.26571292444444 21.305842346666665-51.426893368888884 28.406237866666668-28.41905152 74.43473408-28.41905152 102.84097194666667 0z"  horiz-adv-x="1024" />

    
    <glyph glyph-name="baocun4" unicode="&#58918;" d="M924.8768-102.05866666999998H99.1232c-43.433984 0-78.6432 35.209216-78.6432 78.6432V802.33813333C20.48 845.77211733 55.689216 880.98133333 99.1232 880.98133333H217.088v-286.17386666h589.824V880.98133333h117.9648c43.433984 0 78.6432-35.209216 78.6432-78.6432v-825.7536c0-43.433984-35.209216-78.6432-78.6432-78.6432z m-89.56586667 467.49013334c0 43.433984-35.209216 78.6432-78.6432 78.6432L266.24 444.51157333c-43.433984 0-78.6432-35.209216-78.6432-78.6432v-294.912c0-43.433984 35.209216-78.6432 78.6432-78.6432h491.52c43.433984 0 78.6432 35.209216 78.6432 78.6432l-1.09226667 294.47509334z m-158.16021333-288.57685334l-331.17525333 0.21845334c-36.91861333 0-65.536 28.61738667-65.536 65.536v150.7328c0 36.91861333 28.61738667 65.536 65.536 65.536h332.04906666c36.91861333 0 65.97290667-28.83584 65.97290667-65.75991467V143.70133333c0-36.91861333-29.92810667-66.84672-66.84672-66.84672zM706.42346667 714.9567999999999v-4.36906667h-0.21845334c-2.25553067-34.14971733-30.59985067-61.16693333-65.31754666-61.16693333s-63.05109333 27.017216-65.31208534 61.16693333h-0.22391466v109.22666667h0.22391466C577.83637333 853.96411733 606.16430933 880.98133333 640.88746667 880.98133333s63.062016-27.017216 65.31754666-61.16693333h0.21845334v-104.8576z"  horiz-adv-x="1024" />

    
    <glyph glyph-name="yuangonglizhi" unicode="&#58944;" d="M119.14544 76.544643V633.403107c0 7.317708 5.963108 13.280817 13.267506 13.280816h276.815588c6.883581-47.370055 47.767322-83.882829 97.013135-83.882829s90.129553 36.512775 97.013134 83.882829h285.295407c7.303374 0 13.267506-5.963108 13.267506-13.280816v-327.161054h56.021886V633.403107c0 38.214472-31.07492 69.302702-69.289392 69.302702H604.279713v70.178124c0 15.468859-12.528261 28.011455-28.011455 28.011455H436.213032c-15.483194 0-28.011455-12.541571-28.011455-28.011455v-70.178124H132.412946c-38.214472 0-69.289392-31.08823-69.289392-69.302702v-556.85744c0-38.201161 31.07492-69.289392 69.289392-69.289392h448.014334v56.021886H132.412946c-7.304398 0-13.267506 5.949798-13.267506 13.266482z m345.079047 668.328859h84.03334v-84.03334c0-23.169501-18.847681-42.017182-42.016158-42.017182-23.169501 0-42.017182 18.847681-42.017182 42.017182v84.03334zM174.730126 234.039708v-52.042044c0-15.468859 12.528261-28.011455 28.011455-28.011454h343.902603c15.483194 0 28.011455 12.542595 28.011455 28.011454v52.042044a28.006335 28.006335 0 0 1-15.483194 25.056521l-103.23631 51.604844 26.69781 38.844162a28.064697 28.064697 0 0 1 4.923865 15.866127V447.391812c0 60.891484-48.664246 108.584063-110.78644 108.584063-62.122194 0-110.78644-47.692578-110.78644-108.584063v-81.981474a27.905995 27.905995 0 0 1 5.197242-16.234726l27.190298-38.255427-107.722975-51.618155a28.006335 28.006335 0 0 1-15.919369-25.262322z m56.021886-17.644616l121.837234 58.374774a27.933639 27.933639 0 0 1 15.017326 18.258947 27.869135 27.869135 0 0 1-4.294175 23.238101l-41.305582 58.087062V447.391812c0 29.474587 24.044923 52.562177 54.763531 52.562177 30.719631 0 54.764554-23.08759 54.764554-52.562177v-73.282544l-40.019582-58.210953a28.00224 28.00224 0 0 1-4.048442-22.868478c2.051866-7.836818 7.358664-14.429616 14.607772-18.05417l116.558081-58.251908v-6.715664H230.752012v6.386997zM949.112003 15.270226l-86.973938 81.865775 86.973938 81.865775c11.269906 10.600285 11.79004 28.325788 1.203066 39.595693-10.64124 11.28424-28.366743 11.80335-39.609004 1.189755l-89.436383-84.182828-89.436383 84.182828c-11.269906 10.613595-28.968787 10.093462-39.610028-1.189755-10.58595-11.269906-10.066841-28.995409 1.204089-39.595693l86.973939-81.865775-86.973939-81.865775c-11.269906-10.600285-11.79004-28.325788-1.204089-39.595694a27.993025 27.993025 0 0 1 20.407058-8.808485c6.89382 0 13.786616 2.51671 19.20297 7.617707l89.436383 84.182827 89.436383-84.182827c5.416353-5.102021 12.309149-7.617707 19.202969-7.617707a27.984834 27.984834 0 0 1 20.406035 8.808485c10.586974 11.27093 10.066841 28.996432-1.203066 39.595694zM765.344041 332.502664c0 15.468859-12.528261 28.011455-28.011454 28.011454H623.510327c-15.483194 0-28.011455-12.542595-28.011455-28.011454s12.528261-28.011455 28.011455-28.011455h113.82226c15.483194 0 28.011455 12.541571 28.011454 28.011455zM623.510327 479.260243c-15.483194 0-28.011455-12.542595-28.011455-28.011455s12.528261-28.011455 28.011455-28.011455h178.243077c15.48217 0 28.011455 12.542595 28.011454 28.011455s-12.528261 28.011455-28.011454 28.011455H623.510327z"  horiz-adv-x="1024" />

    
    <glyph glyph-name="bumenguanli" unicode="&#59306;" d="M695.842 561.459c-0.357 7.115-0.891 13.157-1.602 18.135-0.713 4.973-1.774 9.241-3.199 12.795-0.713 25.595-2.843 51.545-6.397 77.853-3.553 22.751-9.245 46.749-17.066 71.988-7.822 25.238-19.903 48.523-36.26 69.857-7.11 9.241-13.684 16.35-19.731 21.329-6.042 4.973-12.087 8.356-18.129 10.13-6.041 1.779-12.267 2.665-18.663 2.665h-20.265c-4.973 4.978-9.775 9.956-14.398 14.931-4.618 4.978-10.13 9.245-16.527 12.8-6.402 3.553-14.752 6.574-25.067 9.067-10.308 2.487-23.636 4.439-39.991 5.861-14.93 0-30.572-1.246-46.923-3.732-16.353-2.487-32.53-6.931-48.523-13.328-15.998-6.402-31.463-15.466-46.395-27.198-14.93-11.73-28.794-26.484-41.593-44.257-14.219-19.198-24.527-40.881-30.929-65.057-6.397-24.177-11.020-46.572-13.861-67.189-2.844-24.882-4.267-49.77-4.267-74.653-2.843-5.691-4.622-12.444-5.329-20.265-1.424-6.397-1.602-14.041-0.533-22.93 1.061-8.884 3.375-19.015 6.931-30.39 3.553-11.376 6.753-20.087 9.596-26.128 2.847-6.047 5.335-10.848 7.465-14.402 2.848-3.553 4.978-6.041 6.402-7.465 2.844-11.376 6.042-21.684 9.596-30.925 3.555-8.533 7.287-16.89 11.198-25.067 3.91-8.177 8.709-14.398 14.397-18.663 10.665-9.241 20.445-18.129 29.328-26.662 8.889-8.528 14.046-20.615 15.466-36.26 0.713-10.663 1.069-20.259 1.069-28.794 0-8.533-1.601-16.71-4.8-24.532-3.199-7.822-8.528-15.637-15.995-23.459-7.465-7.822-17.956-15.998-31.463-24.532-17.061-11.376-37.149-19.91-60.257-25.595-23.107-5.686-45.147-12.267-66.119-19.732-20.976-7.465-39.461-17.594-55.454-30.395-15.999-12.795-25.777-31.281-29.333-55.456-6.397-42.656-7.822-77.317-4.266-103.981 3.561-26.662 8.533-42.483 14.935-47.457 3.553-3.555 12.972-6.935 28.259-10.135 15.287-3.199 33.772-6.575 55.454-10.132 21.685-3.553 45.682-6.753 71.988-9.596 26.306-2.847 52.791-5.334 79.452-7.465 26.663-2.135 52.613-3.91 77.853-5.335 25.238-1.422 47.457-2.13 66.653-2.13 19.198 0 41.595 0.529 67.189 1.597 25.595 1.070 51.901 2.844 78.919 5.335 19.94 1.836 39.883 3.965 59.822 6.383-65.444 45.062-108.356 120.495-108.356 205.962 0 51.712 15.708 99.755 42.611 139.62-2.966 4.163-5.456 8.415-7.405 12.768-4.623 10.314-7.287 20.443-8 30.396-0.713 9.956 0 19.91 2.131 29.86 2.843 16.354 8.177 27.908 15.998 34.661 7.822 6.754 17.772 15.109 29.86 25.060 5.686 4.266 10.486 10.486 14.398 18.663 3.91 8.177 7.644 16.532 11.198 25.067 3.553 9.241 6.753 19.549 9.599 30.925 4.262 2.134 8.173 5.691 11.727 10.669 3.555 4.262 6.758 10.486 9.601 18.663 2.844 8.172 4.98 19.371 6.397 33.594 1.424 10.661 1.958 19.546 1.602 26.655v0zM503.341 155.134c-5.686-11.376-10.486-20.443-14.398-27.198-3.91-6.753-7.999-11.909-12.267-15.462 2.135-7.11 4.623-16.707 7.466-28.795 2.847-12.087 5.513-24.527 7.999-37.326 2.487-12.8 4.801-24.354 6.931-34.661 2.135-10.308 3.199-17.594 3.199-21.862 0-3.553-1.597-7.999-4.795-13.328-3.199-5.334-7.11-10.314-11.731-14.931-4.623-4.622-9.423-8.709-14.398-12.266-4.978-3.555-9.245-5.335-12.8-5.335-3.553 0-7.644 1.779-12.266 5.335-4.619 3.553-9.062 7.999-13.329 13.328-4.266 5.335-7.999 10.491-11.197 15.466-3.199 4.978-4.801 9.245-4.801 12.8 0 5.684 0.891 14.041 2.67 25.060 1.774 11.020 3.906 22.751 6.397 35.195 2.487 12.439 5.152 24.527 8 36.26 2.843 11.73 4.973 20.793 6.397 27.197-4.267 4.266-8.178 10.13-11.731 17.597-3.555 7.465-7.822 16.177-12.795 26.128-2.135 3.555-2.315 7.465-0.533 11.731 1.774 4.266 4.089 8.177 6.931 11.731 2.843 4.266 6.753 8.884 11.731 13.861h49.057c4.973-4.978 9.241-9.596 12.795-13.861 3.555-4.267 6.22-8.711 8-13.335 1.779-4.619 1.601-9.062-0.533-13.328zM794.753 206.417c-40.701 0-73.751-32.978-73.751-73.749 0-40.694 32.983-73.748 73.751-73.748 40.694 0 73.749 32.978 73.749 73.748 0 40.772-32.983 73.749-73.749 73.749zM979.309 174.167h-36.402c-3.349 12.011-8.082 23.44-14.051 34.068l25.701 25.7c4.732 4.732 4.732 12.375 0 17.107l-41.501 41.5c-2.329 2.329-5.458 3.495-8.518 3.495-3.13 0-6.186-1.166-8.515-3.495l-25.7-25.7c-10.631 5.969-22.062 10.702-34.075 14.051v36.403c0 6.626-5.461 12.087-12.084 12.087h-58.683c-6.623 0-12.084-5.461-12.084-12.087v-36.403c-12.014-3.349-23.444-8.080-34.075-14.051l-25.698 25.627c-2.332 2.333-5.461 3.495-8.518 3.495-3.058 0-6.191-1.163-8.518-3.495l-41.5-41.494c-4.657-4.732-4.657-12.375 0-17.107l25.7-25.7c-5.969-10.631-10.702-22.062-14.049-34.075h-36.403c-6.626 0-12.084-5.461-12.084-12.084v-58.683c0-6.623 5.458-12.084 12.084-12.084h36.403c3.348-12.014 8.080-23.444 14.049-34.075l-25.7-25.698c-4.657-4.732-4.657-12.379 0-17.111l41.5-41.495c2.329-2.327 5.461-3.494 8.518-3.494s6.186 1.166 8.518 3.494l25.698 25.701c10.63-5.973 22.061-10.705 34.075-14.055v-36.403c0-6.623 5.461-12.084 12.084-12.084h58.683c6.623 0 12.084 5.461 12.084 12.084v36.403c12.014 3.349 23.444 8.080 34.075 14.055l25.7-25.701c2.329-2.327 5.458-3.494 8.515-3.494 3.133 0 6.19 1.166 8.518 3.494l41.501 41.495c4.732 4.732 4.732 12.379 0 17.111l-25.701 25.698c5.969 10.631 10.702 22.062 14.051 34.075h36.402c6.626 0 12.087 5.461 12.087 12.084v58.683c0 6.697-5.461 12.158-12.087 12.158zM898.061 103.838c-2.327-8.374-5.607-16.383-9.756-23.734l-14.78-26.14-26.137-14.78c-7.354-4.149-15.289-7.423-23.735-9.756l-28.9-8.080-28.905 8.080c-8.374 2.332-16.383 5.607-23.734 9.756l-26.14 14.78-14.779 26.14c-4.149 7.351-7.425 15.287-9.757 23.734l-8.006 28.905 8.082 28.9c2.327 8.374 5.605 16.383 9.757 23.734l14.779 26.14 26.14 14.78c7.351 4.149 15.287 7.427 23.73 9.756l28.905 8.080 28.903-8.080c8.374-2.327 16.381-5.607 23.735-9.756l26.133-14.78 14.78-26.14c4.151-7.351 7.427-15.287 9.756-23.734l8.080-28.9-8.151-28.905z"  horiz-adv-x="1024" />

    
    <glyph glyph-name="gongzuotai" unicode="&#59225;" d="M633.363 808.593v-303.053c0-0.435-0.26-0.177 0.177-0.177h303.053c0.435 0 0.177-0.26 0.177 0.177v303.053c0 0.435 0.26 0.177-0.177 0.177h-303.053c-0.435 0-0.177 0.26-0.177-0.177zM572.681 808.593c0 33.611 26.572 60.859 60.86 60.859h303.053c33.611 0 60.859-26.571 60.859-60.859v-303.053c0-33.611-26.571-60.859-60.859-60.859h-303.053c-33.611 0-60.859 26.571-60.859 60.859v303.053zM26.547 808.593c0 33.611 26.572 60.859 60.86 60.859h303.053c33.611 0 60.859-26.571 60.859-60.859v-303.053c0-33.611-26.571-60.859-60.859-60.859h-303.053c-33.611 0-60.859 26.571-60.859 60.859v303.053zM26.547 262.46c0 33.611 26.572 60.859 60.86 60.859h303.053c33.611 0 60.859-26.571 60.859-60.859v-303.053c0-33.611-26.571-60.859-60.859-60.859h-303.053c-33.611 0-60.859 26.571-60.859 60.859v303.053zM572.681 262.46c0 33.611 26.572 60.859 60.86 60.859h303.053c33.611 0 60.859-26.571 60.859-60.859v-303.053c0-33.611-26.571-60.859-60.859-60.859h-303.053c-33.611 0-60.859 26.571-60.859 60.859v303.053z"  horiz-adv-x="1024" />

    
    <glyph glyph-name="avatar-fill" unicode="&#58929;" d="M501.938 350.903c147.892 0 268.231 118.534 268.223 264.289 0 145.747-120.33 264.29-268.222 264.29-147.891 0-268.221-118.585-268.221-264.29-0.001-145.712 120.329-264.289 268.22-264.289zM612.471 325.453h-200.974c-186.76 0-338.664-149.57-338.664-333.473v-19.794c0-96.14 149.473-96.14 338.664-96.14h200.974c181.748 0 338.695 0 338.695 96.14v19.794c-0.002 183.861-151.93 333.473-338.695 333.473z"  horiz-adv-x="1024" />

    
    <glyph glyph-name="pages" unicode="&#58937;" d="M765.472 536.084l-147.737 147.737c-3.622 3.622-7.968 6.878-13.036 10.135v-170.908h170.908c-3.257 5.068-6.515 9.414-10.134 13.035zM593.111 476.699c-19.188 0-34.761 15.574-34.761 34.761v196.981h-289.679c-19.189 0-34.761-15.566-34.761-34.761v-579.359c0-19.189 15.574-34.761 34.761-34.761h486.66c19.194 0 34.761 15.574 34.761 34.761v382.378h-196.981zM651.049 210.197c0-6.52-5.074-11.588-11.589-11.588h-254.918c-6.516 0-11.582 5.069-11.582 11.588v23.17c0 6.516 5.069 11.589 11.582 11.589h254.919c6.516 0 11.589-5.074 11.589-11.589v-23.17zM651.049 302.889c0-6.516-5.074-11.582-11.589-11.582h-254.918c-6.516 0-11.582 5.069-11.582 11.582v23.179c0 6.516 5.069 11.582 11.582 11.582h254.919c6.516 0 11.589-5.069 11.589-11.582v-23.179zM651.049 395.588c0-6.516-5.074-11.589-11.589-11.589h-254.918c-6.516 0-11.582 5.073-11.582 11.589v23.17c0 6.52 5.069 11.589 11.582 11.589h254.919c6.516 0 11.589-5.069 11.589-11.589v-23.17z"  horiz-adv-x="1024" />

    
    <glyph glyph-name="aixin1" unicode="&#58903;" d="M709.91872 692.79744c45.83936 0 83.45088-19.40992 111.80032-57.69216 25.76896-34.80576 41.15968-83.32288 41.15968-129.792 0-61.51168-20.62848-122.99776-61.32224-182.7584-57.70752-84.74624-155.18208-166.44096-289.96096-243.07712-134.77888 76.61568-232.12032 158.09024-289.5616 242.41152-40.99072 60.17024-60.91264 119.73632-60.91264 182.10304 0 47.34464 14.81728 96.38912 39.6288 131.2 27.24352 38.21568 63.9744 57.6 109.17376 57.6 103.5008 0 155.63776-69.58592 159.44704-74.86976l42.51648-65.03424 42.73664 66.22208c0.47104 0.7424 50.4832 73.68704 155.29472 73.68704m0 51.2c-135.63904 0-198.31808-97.12128-198.31808-97.12128S445.55776 743.99744 309.91872 743.99744 109.92128 613.12 109.92128 503.99744s52.23936-292.32128 401.67936-483.11808c349.44 190.80192 402.47808 375.36256 402.47808 484.43904 0 109.12256-68.52096 238.67904-204.16 238.67904z"  horiz-adv-x="1024" />

    
    <glyph glyph-name="chubeiku" unicode="&#58921;" d="M502.449483 725.101725L170.898275 522.487098 170.898275 42.898275 211.147978 42.898275 211.147978 499.974361 502.449483 678.02964 812.852022 499.292839 812.852022 42.898275 853.101725 42.898275 853.101725 523.169643ZM636.160811 497.927749L387.839189 497.927749l0-206.707852L284.143479 291.219897l0-248.322645 207.390397 0 40.932248 0 207.390397 0L739.856521 291.219897 636.160811 291.219897 636.160811 497.927749zM428.088892 456.995501l42.97886 0 0-48.436152 81.181951 0 0 48.436152 42.97886 0 0-165.775604-62.762439 0-40.932248 0-63.444984 0L428.088892 456.995501zM324.394205 83.147978l0 167.822217 42.97886 0 0-48.436152 81.181951 0 0 47.072085 42.97886 0 0-165.775604L324.394205 83.830523 324.394205 83.147978zM699.605795 83.147978L532.466124 83.147978 532.466124 249.606127l42.97886 0 0-47.072085 81.181951 0 0 48.436152 42.97886 0L699.605795 83.147978 699.605795 83.147978z"  horiz-adv-x="1024" />

    
    <glyph glyph-name="zhiwei" unicode="&#58904;" d="M400.56832 872.70912h246.64576l-53.12-223.88736H448L400.56832 865.11616V872.70912zM523.89888-100.61312L284.83072 100.5056 448 605.18912h147.9936l161.26976-510.37696-233.36448-195.42528z"  horiz-adv-x="1024" />

    
    <glyph glyph-name="daoqizhongqian-" unicode="&#58955;" d="M774.582857 678.619429h3.657143c21.942857 0 39.643429 17.846857 39.643429 39.643428v31.305143h27.209142c21.650286 0 39.497143 17.846857 39.497143 39.643429v32.182857H139.410286v-32.182857c0-21.650286 17.846857-39.643429 39.643428-39.643429h26.331429v-31.451429c0-21.650286 17.700571-39.643429 39.497143-39.643428H248.685714c0.146286-95.085714 29.988571-185.197714 105.325715-246.930286l30.281142-27.940571c5.997714-6.875429 10.825143-13.750857 11.117715-18.578286 0.877714-11.702857-13.458286-26.477714-25.014857-36.278857l-0.438858-0.438857c-87.04-61.878857-121.124571-157.257143-121.270857-259.072h-4.096a39.789714 39.789714 0 0 1-39.497143-39.643429v-31.305143h-26.331428a39.936 39.936 0 0 1-39.643429-39.643428v-32.182857h745.179429v32.182857a39.789714 39.789714 0 0 1-39.497143 39.643428h-27.209143v31.305143a39.789714 39.789714 0 0 1-39.643428 39.643429h-3.657143c0 101.522286-34.816 196.608-121.124572 258.486857a8.045714 8.045714 0 0 1-0.877714 1.170286c-11.702857 9.801143-26.038857 24.576-25.161143 36.278857 0.292571 4.827429 5.12 11.702857 11.117714 18.578285 10.24 9.947429 33.499429 30.573714 33.499429 30.573715l-0.292571 0.292571c73.435429 61.732571 103.131429 149.942857 103.131428 244.004572z m-124.635428-183.734858s-7.460571-9.069714-23.990858-22.235428a247.222857 247.222857 0 0 0-24.868571-21.942857c-13.750857-13.458286-28.672-31.012571-31.597714-45.787429h-0.877715a92.745143 92.745143 0 0 1 33.353143-88.064 186.660571 186.660571 0 0 0 24.137143-21.942857c16.530286-13.312 23.990857-22.235429 23.990857-22.235429 57.929143-48.713143 64.219429-156.672 64.804572-183.442285h-73.728c2.048 68.315429-39.204571 114.980571-46.518857 124.635428-7.460571 9.801143-20.48 23.259429-50.176 57.636572-29.696 34.523429-17.700571 89.819429-11.117715 119.076571s46.811429 70.070857 61.293715 87.478857c14.336 17.115429 12.873143 29.696 12.873142 29.696h-189.44s-1.462857-12.580571 13.165715-29.696c14.336-17.261714 54.857143-58.075429 61.44-87.478857 6.290286-29.257143 18.578286-84.553143-11.264-119.076571-29.842286-34.230857-42.715429-47.689143-50.176-57.636572-7.460571-9.508571-48.566857-56.32-46.518857-124.635428h-75.483429c0.731429 26.770286 6.875429 134.729143 65.097143 183.442285 0 0 7.460571 9.069714 23.990857 22.235429l2.925714 2.925714a141.458286 141.458286 0 0 0 20.918857 19.017143 93.184 93.184 0 0 1 33.499429 88.064h-0.877714c-3.072 14.774857-17.993143 32.329143-31.597715 45.787429a232.594286 232.594286 0 0 0-24.722285 21.942857c-16.530286 13.312-23.990857 22.235429-23.990857 22.235428-58.075429 48.566857-64.365714 155.940571-65.243429 183.149715h405.650286c-0.585143-27.209143-6.875429-134.582857-64.950857-183.149715z"  horiz-adv-x="1024" />

    
    <glyph glyph-name="icon16" unicode="&#58895;" d="M512 729.081c-191.13 0-346.070-154.94-346.070-346.070s154.94-346.070 346.070-346.070 346.070 154.94 346.070 346.070-154.94 346.070-346.070 346.070zM462.562 334.562v296.631h49.438v-247.193h247.193v-49.438h-296.631z"  horiz-adv-x="1024" />

    
    <glyph glyph-name="zuanshi3" unicode="&#58888;" d="M344.318 429.646l400.1 1.798-192.408-483.716zM390.172 604.97l304.795-2.697 53.947-117.782-395.604 2.697zM302.959 490.784l-240.959 100.699 129.471 96.204 154.645-80.020zM62 533.042l228.371-101.598 245.454-480.12zM801.96 432.343l213.986 110.589-450.449-588.911zM797.464 491.683l-60.239 124.076 137.562 76.423 118.681-99.8zM385.677 664.311l-52.148 13.487-98.002 54.846 115.085 41.359h375.824l114.186-47.652-109.69-53.048-36.863-8.992h-308.392z"  horiz-adv-x="1086" />

    
    <glyph glyph-name="tixing" unicode="&#59031;" d="M888.832 540.923c-20.511 48.423-49.759 91.872-87.139 129.251s-80.828 66.628-129.251 87.139c-50.123 21.238-103.402 31.918-158.257 31.918s-108.134-10.801-158.257-31.918c-48.423-20.511-91.872-49.759-129.251-87.139-37.379-37.379-66.628-80.828-87.139-129.251-21.238-50.123-31.918-103.402-31.918-158.257s10.801-108.134 31.918-158.257c20.511-48.423 49.759-91.872 87.139-129.251 37.379-37.379 80.828-66.628 129.251-87.139 50.123-21.238 103.402-31.918 158.257-31.918s108.134 10.801 158.257 31.918c48.423 20.511 91.872 49.759 129.251 87.139 37.379 37.379 66.628 80.828 87.139 129.251 21.238 50.123 31.918 103.402 31.918 158.257s-10.801 108.134-31.918 158.257zM514.185 34.353c-192.117 0-348.311 156.194-348.311 348.311s156.194 348.311 348.311 348.311 348.311-156.194 348.311-348.311c0-191.997-156.194-348.311-348.311-348.311zM514.185 593.957c-19.419 0-35.195-15.899-35.195-35.195v-240.299c0-19.419 15.777-35.195 35.195-35.195 19.297 0 35.195 15.777 35.195 35.195v240.299c0 19.297-15.899 35.195-35.195 35.195zM514.185 246.011c-19.419 0-35.195-15.899-35.195-35.195s15.777-35.195 35.195-35.195c19.297 0 35.195 15.899 35.195 35.195s-15.899 35.195-35.195 35.195z"  horiz-adv-x="1024" />

    
    <glyph glyph-name="tongyi1" unicode="&#59006;" d="M510.4 801.4c-230.3 0-416.9-186.7-416.9-416.9 0-230.3 186.7-416.9 416.9-416.9 230.3 0 416.9 186.7 416.9 416.9S740.6 801.4 510.4 801.4z m0-778.3C310.8 23.1 149 184.9 149 384.5s161.8 361.3 361.3 361.3S871.7 584 871.7 384.5 709.9 23.1 510.4 23.1zM693 524.4L417.9 249.3l-118 117.9c-10.9 10.9-28.5 10.9-39.3 0-10.9-10.9-10.9-28.5 0-39.3l137.6-137.6c10.9-10.9 28.5-10.9 39.3 0l294.8 294.8c10.9 10.9 10.9 28.5 0 39.3-10.8 10.9-28.4 10.9-39.3 0z"  horiz-adv-x="1024" />

    
    <glyph glyph-name="chehui" unicode="&#58905;" d="M844.48 122.048a19.52 19.52 0 0 0-15.36 7.52c-60.928 78.208-221.184 169.12-336.48 169.12-12.576 0.064-47.04-0.192-69.024-0.352V160a19.52 19.52 0 0 0-33.92-13.12l-224.608 246.208a19.52 19.52 0 0 0 0 26.304l224.576 246.24a19.52 19.52 0 0 0 33.92-13.12v-138.944a3143.04 3143.04 0 0 0 69.664 0.096c96.704-3.008 191.712-54.24 267.552-144.256 61.216-72.64 102.688-164.16 103.2-227.68a19.52 19.52 0 0 0-19.52-19.68z m-352 215.68h0.16c59.776 0 133.344-21.344 207.136-60.096 42.336-22.24 81.76-48.864 113.376-76.096-14.08 42.336-41.024 93.856-82.208 142.72-39.712 47.168-123.584 126.816-238.912 130.4-14.688 0.448-87.04-0.32-87.744-0.32a19.552 19.552 0 0 0-19.712 19.52V602.112l-178.656-195.84 178.656-195.904v107.36a19.52 19.52 0 0 0 19.36 19.52c0.704 0 69.248 0.48 88.544 0.48z"  horiz-adv-x="1024" />

    
    </font>
</defs>
</svg>
